<?xml version="1.0" standalone="no"?>
<!DOCTYPE svg PUBLIC "-//W3C//DTD SVG 1.1//EN" "http://www.w3.org/Graphics/SVG/1.1/DTD/svg11.dtd" >
<!--
2013-9-30: Created.
-->
<svg>
<metadata>
Created by iconfont
</metadata>
<defs>

<font id="iconfont" horiz-adv-x="1024" >
  <font-face
    font-family="iconfont"
    font-weight="500"
    font-stretch="normal"
    units-per-em="1024"
    ascent="896"
    descent="-128"
  />
    <missing-glyph />
    
    <glyph glyph-name="x" unicode="x" horiz-adv-x="1001"
d="M281 543q-27 -1 -53 -1h-83q-18 0 -36.5 -6t-32.5 -18.5t-23 -32t-9 -45.5v-76h912v41q0 16 -0.5 30t-0.5 18q0 13 -5 29t-17 29.5t-31.5 22.5t-49.5 9h-133v-97h-438v97zM955 310v-52q0 -23 0.5 -52t0.5 -58t-10.5 -47.5t-26 -30t-33 -16t-31.5 -4.5q-14 -1 -29.5 -0.5
t-29.5 0.5h-32l-45 128h-439l-44 -128h-29h-34q-20 0 -45 1q-25 0 -41 9.5t-25.5 23t-13.5 29.5t-4 30v167h911zM163 247q-12 0 -21 -8.5t-9 -21.5t9 -21.5t21 -8.5q13 0 22 8.5t9 21.5t-9 21.5t-22 8.5zM316 123q-8 -26 -14 -48q-5 -19 -10.5 -37t-7.5 -25t-3 -15t1 -14.5
t9.5 -10.5t21.5 -4h37h67h81h80h64h36q23 0 34 12t2 38q-5 13 -9.5 30.5t-9.5 34.5q-5 19 -11 39h-368zM336 498v228q0 11 2.5 23t10 21.5t20.5 15.5t34 6h188q31 0 51.5 -14.5t20.5 -52.5v-227h-327z" />
    

    
    <glyph glyph-name="qiehuan" unicode="&#58980;" d="M648.343 450.955v144.645l255.466-231.301-255.466-215.762v122.898h-238.897v179.519zM349.377 320.801v-108.74h239.587v-179.521h-239.587v-111.504l-227.848 204.024zM921.422 497.216z"  horiz-adv-x="1024" />

    
    <glyph glyph-name="zhankai-copy" unicode="&#58893;" d="M502.040 397.331l-435.226-353.361 70.682-70.677 364.543 282.678 364.543-282.678 70.677 70.677-435.219 353.361zM866.582 373.22l70.677 70.678-435.22 353.361-435.226-353.361 70.682-70.678 364.543 282.679 364.545-282.679z"  horiz-adv-x="1024" />

    
    <glyph glyph-name="zhankai" unicode="&#58898;" d="M922.48351 800.662028c8.038864 6.895058 8.673194 19.112441 1.392504 26.803934l-43.828123 46.297979c-6.681601 7.058171-17.680669 7.75392-25.198981 1.595892l-331.109792-271.23616c-6.828605-5.59418-16.655673-5.59418-23.484278 0L169.147062 875.358826c-7.518312 6.159035-18.517379 5.46228-25.198981-1.595892l-43.825102-46.296972c-7.28069-7.691494-6.645354-19.908876 1.393511-26.802927l397.93688-341.314438c7.218264-6.190248 17.872981-6.191255 25.090238 0L922.48351 800.662028zM100.121973 414.653558c-7.279683-7.690487-6.645354-19.908876 1.393511-26.802927L499.933648 46.123375c6.940367-5.952626 17.186295-5.952626 24.126662 0l398.422193 341.727255c8.038864 6.895058 8.674201 19.112441 1.393511 26.802927l-43.825102 46.296972c-6.681601 7.058171-17.680669 7.754927-25.198981 1.595892L523.740125 191.307241c-6.828605-5.59418-16.655673-5.59418-23.484278 0L164.305016 466.513497c-4.789689 3.923779-11.797517 3.479749-16.054571-1.016941L100.121973 414.653558z"  horiz-adv-x="1024" />

    
    <glyph glyph-name="arrRight-fill" unicode="&#59256;" d="M377.4780684453485 106.8888416290281l279.6549224853515 279.65492248535156-278.8075160980225 278.80751609802246z"  horiz-adv-x="1024" />

    
    <glyph glyph-name="arrLeft-fill" unicode="&#59258;" d="M234.8888416290282 518.5219315546517l279.65492248535145-279.6549224853517 278.8075160980226 278.80751609802246z"  horiz-adv-x="1024" />

    
    <glyph glyph-name="icon_demonstration_m" unicode="&#58883;" d="M365.393171 795.822829h426.20878v-380.52839h100.776586V896H264.616585v-366.329756H0.124878v-657.52039h100.776585v557.330731h281.350244v-557.330731h100.776586V529.682732h-117.635122V795.822829z m63.438049-154.474146h96.530731V737.404878h-96.530731v-96.018732zM193.31122 271.884488h96.530731v96.018732h-96.530731v-96.018732z m533.603902 465.482927h-96.530732v-96.018732h96.530732V737.404878z m-96.530732-240.040586h96.530732v96.018732h-96.530732v-96.018732z m314.567805-353.292488V169.084878H718.548293v-25.050537h226.403902z m179.449756 190.164293H540.846829V284.097561h37.088781v-280.438634h228.651707v-65.748293H739.278049v-50.088585h190.439024v50.088585h-72.803902v65.748293h228.776585V284.097561h38.712195v50.101073z m-63.937561-305.489171H603.036098V284.097561h457.428292v-255.388098z"  horiz-adv-x="1124" />

    
    <glyph glyph-name="icon_demonstration" unicode="&#58884;" d="M365.393171 795.822829h426.20878v-380.52839h100.776586V896H264.616585v-366.329756H0.124878v-657.52039h100.776585v557.330731h281.350244v-557.330731h100.776586V529.682732h-117.635122V795.822829z m63.438049-154.474146h96.530731V737.404878h-96.530731v-96.018732zM193.31122 271.884488h96.530731v96.018732h-96.530731v-96.018732z m533.603902 465.482927h-96.530732v-96.018732h96.530732V737.404878z m-96.530732-240.040586h96.530732v96.018732h-96.530732v-96.018732z m314.567805-353.292488V169.084878H718.548293v-25.050537h226.403902z m179.449756 190.164293H540.846829V284.097561h37.088781v-280.438634h228.651707v-65.748293H739.278049v-50.088585h190.439024v50.088585h-72.803902v65.748293h228.776585V284.097561h38.712195v50.101073z m-63.937561-305.489171H603.036098V284.097561h457.428292v-255.388098z"  horiz-adv-x="1124" />

    
    <glyph glyph-name="icon_ibms_move" unicode="&#58885;" d="M853.791502 415.996053l-30.442355 6.896898v-163.201342l-8.589545-4.50951-10.105346 4.926356V422.918215l-30.316039-6.896899a175.011966 175.011966 0 0 1-46.484592-324.72267v-133.137937a86.148077 86.148077 0 0 1 172.296153 0v133.137937A174.961439 174.961439 0 0 1 853.791502 415.996053zM865.286334 129.004219l-14.779069-6.442158v-164.426616a36.442405 36.442405 0 0 0-72.88481 0V122.587324l-14.905386 6.442158a125.925246 125.925246 0 0 0-7.705326 228.090297v-127.504207l60.379444-29.608664 57.72679 30.012878V357.119779A125.975773 125.975773 0 0 0 865.286334 129.029482z m-51.284633 59.82365a27.09496 27.09496 0 1 1 27.410752-27.09496 27.32233 27.32233 0 0 1-27.410752 27.120223z m-422.024523 608.847112h420.382405v-322.663706h99.411343V896H292.565834v-359.54822H31.595267v-645.327412h99.411344v546.951866h277.518072v-546.951866h99.411344V536.489675h-115.958849V797.700244z m62.52683-151.580194h95.242889v94.244986h-95.242889v-94.244986zM222.207361 283.477068h95.242889V377.722054h-95.242889v-94.244986z m526.362223 456.862705h-95.242888v-94.244986h95.242888v94.244986z m-95.242888-235.606149h95.242888v94.244986h-95.242888v-94.244986z"  horiz-adv-x="1024" />

    
    <glyph glyph-name="icon_group" unicode="&#58886;" d="M413.888 800.442182h401.594182v-313.553455h94.952727V896H318.935273v-349.381818H69.684364v-627.095273h94.952727V451.060364h265.099636v-531.537455h94.952728V546.618182h-110.801455V800.442182z m59.764364-147.316364h90.996363V744.727273h-90.996363v-91.578182zM251.688727 300.765091h90.996364v91.566545h-90.996364v-91.566545z m411.857455 352.360727h90.996363V744.727273h-90.996363v-91.578182z m90.996363-45.789091h-90.996363v-91.578182h90.996363v91.578182z m-0.488727-286.254545h121.018182l37.992727 115.328h-197.003636z m-2.222545-13.207273l-62.068364-333.870545L814.539636-128l121.448728 102.155636-62.056728 333.765819H751.842909z m102.4-23.889454l7.575272-40.727273L741.509818 122.181818l11.810909 63.511273 97.745455 98.373818h3.223273z m11.298909-60.765091l8.087273-43.496728-149.399273-150.341818 11.810909 63.511273z m-38.109091 60.765091l-68.736-69.166546 12.858182 69.166546h55.854545z m-108.625455-283.81091l158.533819 159.546182 8.087272-43.496727-148.794182-149.701818-20.945454 17.093818z m170.344728 96.046546l8.075636-43.496727-119.272727-120.040728-28.311273 23.144728z m-74.810182-193.314909L790.952727-77.963636l109.986909 110.685091 9.157819-49.256728z m83.141818 334.824727l56.727273-54.283636-71.738182 124.229818z"  horiz-adv-x="1024" />

    
    <glyph glyph-name="icon_ibms" unicode="&#58887;" d="M853.791502 415.996053l-30.442355 6.896898v-163.201342l-8.589545-4.50951-10.105346 4.926356V422.918215l-30.316039-6.896899a175.011966 175.011966 0 0 1-46.484592-324.72267v-133.137937a86.148077 86.148077 0 0 1 172.296153 0v133.137937A174.961439 174.961439 0 0 1 853.791502 415.996053zM865.286334 129.004219l-14.779069-6.442158v-164.426616a36.442405 36.442405 0 0 0-72.88481 0V122.587324l-14.905386 6.442158a125.925246 125.925246 0 0 0-7.705326 228.090297v-127.504207l60.379444-29.608664 57.72679 30.012878V357.119779A125.975773 125.975773 0 0 0 865.286334 129.029482z m-51.284633 59.82365a27.09496 27.09496 0 1 1 27.410752-27.09496 27.32233 27.32233 0 0 1-27.410752 27.120223z m-422.024523 608.847112h420.382405v-322.663706h99.411343V896H292.565834v-359.54822H31.595267v-645.327412h99.411344v546.951866h277.518072v-546.951866h99.411344V536.489675h-115.958849V797.700244z m62.52683-151.580194h95.242889v94.244986h-95.242889v-94.244986zM222.207361 283.477068h95.242889V377.722054h-95.242889v-94.244986z m526.362223 456.862705h-95.242888v-94.244986h95.242888v94.244986z m-95.242888-235.606149h95.242888v94.244986h-95.242888v-94.244986z"  horiz-adv-x="1024" />

    
    <glyph glyph-name="icon_group_move" unicode="&#58888;" d="M413.888 800.442182h401.594182v-313.553455h94.952727V896H318.935273v-349.381818H69.684364v-627.095273h94.952727V451.060364h265.099636v-531.537455h94.952728V546.618182h-110.801455V800.442182z m59.764364-147.316364h90.996363V744.727273h-90.996363v-91.578182zM251.688727 300.765091h90.996364v91.566545h-90.996364v-91.566545z m411.857455 352.360727h90.996363V744.727273h-90.996363v-91.578182z m90.996363-45.789091h-90.996363v-91.578182h90.996363v91.578182z m-0.488727-286.254545h121.018182l37.992727 115.328h-197.003636z m-2.222545-13.207273l-62.068364-333.870545L814.539636-128l121.448728 102.155636-62.056728 333.765819H751.842909z m102.4-23.889454l7.575272-40.727273L741.509818 122.181818l11.810909 63.511273 97.745455 98.373818h3.223273z m11.298909-60.765091l8.087273-43.496728-149.399273-150.341818 11.810909 63.511273z m-38.109091 60.765091l-68.736-69.166546 12.858182 69.166546h55.854545z m-108.625455-283.81091l158.533819 159.546182 8.087272-43.496727-148.794182-149.701818-20.945454 17.093818z m170.344728 96.046546l8.075636-43.496727-119.272727-120.040728-28.311273 23.144728z m-74.810182-193.314909L790.952727-77.963636l109.986909 110.685091 9.157819-49.256728z m83.141818 334.824727l56.727273-54.283636-71.738182 124.229818z"  horiz-adv-x="1024" />

    
    <glyph glyph-name="icon_projects_move" unicode="&#58889;" d="M721.611566 737.378699h-95.885879v-96.021591h95.885879v96.021591zM425.638554 641.357108h95.88588v96.021591H425.638554v-96.021591z m200.09947-194.128192h95.88588v96.02159h-95.88588v-96.02159zM191.771759 271.890506h95.873542V367.961446h-95.873542v-96.021591zM362.718072 795.820723h423.171085V367.961446h100.055903V896H262.600482v-366.332916H0v-657.519036h100.055904V429.487807h279.329927v-557.327421h100.043567V529.679422H362.718072V795.820723z m606.590458-530.66641V332.42988H719.489542v-67.275567H566.197976v-380.952674h556.414458V265.154313H969.246843z m-224.737157 42.21841H944.300723v-42.21841H744.509687v42.21841zM1072.584482-65.696386H616.21359V215.064675h456.309205V-65.696386zM943.807229 142.977542a15.853494 15.853494 0 1 1-15.816482 15.841157 15.828819 15.828819 0 0 1 15.816482-15.841157z m127.272096-36.851662H617.607711v-25.057157h453.520964v25.057157z m-351.996915 36.851662a15.853494 15.853494 0 1 1-15.82882 15.841157 15.828819 15.828819 0 0 1 15.878169-15.841157z"  horiz-adv-x="1122" />

    
    <glyph glyph-name="icon_projects" unicode="&#58890;" d="M721.611566 737.378699h-95.885879v-96.021591h95.885879v96.021591zM425.638554 641.357108h95.88588v96.021591H425.638554v-96.021591z m200.09947-194.128192h95.88588v96.02159h-95.88588v-96.02159zM191.771759 271.890506h95.873542V367.961446h-95.873542v-96.021591zM362.718072 795.820723h423.171085V367.961446h100.055903V896H262.600482v-366.332916H0v-657.519036h100.055904V429.487807h279.329927v-557.327421h100.043567V529.679422H362.718072V795.820723z m606.590458-530.66641V332.42988H719.489542v-67.275567H566.197976v-380.952674h556.414458V265.154313H969.246843z m-224.737157 42.21841H944.300723v-42.21841H744.509687v42.21841zM1072.584482-65.696386H616.21359V215.064675h456.309205V-65.696386zM943.807229 142.977542a15.853494 15.853494 0 1 1-15.816482 15.841157 15.828819 15.828819 0 0 1 15.816482-15.841157z m127.272096-36.851662H617.607711v-25.057157h453.520964v25.057157z m-351.996915 36.851662a15.853494 15.853494 0 1 1-15.82882 15.841157 15.828819 15.828819 0 0 1 15.878169-15.841157z"  horiz-adv-x="1122" />

    
    <glyph glyph-name="icon_login_admin" unicode="&#58891;" d="M511.537825 644.233327z m-246.556424 0a246.835544 246.835544 0 1 1 246.556424 251.766673 249.394149 249.394149 0 0 1-246.556424-251.766673m459.61839-772.233327H298.941059A208.456478 208.456478 0 0 0 93.322306 81.945121a208.456478 208.456478 0 0 0 205.618753 209.945121h425.658732a208.456478 208.456478 0 0 0 205.618753-209.945121 208.456478 208.456478 0 0 0-205.618753-209.945121z"  horiz-adv-x="1024" />

    
    <glyph glyph-name="icon_login_password" unicode="&#58892;" d="M381.588957 486.222713H248.507369V645.96715a239.82605 239.82605 0 0 0 20.00877 97.298462A256.949835 256.949835 0 0 0 407.64689 876.393732a276.539817 276.539817 0 0 0 105.162374 19.54345 254.064849 254.064849 0 0 0 98.18257-19.54345 280.262379 280.262379 0 0 0 83.292322-53.79102 261.463441 261.463441 0 0 0 58.16503-79.10444 225.587251 225.587251 0 0 0 21.870051-97.298461V486.222713h-127.963065V615.535207a144.528466 144.528466 0 0 1-37.225619 105.99995 134.942869 134.942869 0 0 1-100.509171 37.458279 119.959557 119.959557 0 0 1-92.133407-37.458279 149.69352 149.69352 0 0 1-34.899018-105.99995V486.222713z m456.013832-65.144833a66.261602 66.261602 0 0 0 49.323945-21.218603 71.51972 71.51972 0 0 0 20.474091-50.533778v-336.845319a143.737421 143.737421 0 0 0-37.690939-99.438935 122.984139 122.984139 0 0 0-93.529368-40.762053H241.992886a120.471409 120.471409 0 0 0-51.650546 10.841962 122.286158 122.286158 0 0 0-39.552221 28.803322 130.289666 130.289666 0 0 0-25.592613 41.878822 146.01749 146.01749 0 0 0-8.841084 51.185226v344.336975a71.752381 71.752381 0 0 0 20.00877 50.58031 65.144833 65.144833 0 0 0 48.858625 21.172071H837.602789z"  horiz-adv-x="1024" />

    
    <glyph glyph-name="infor_information" unicode="&#58895;" d="M512.00768 644.288z m-245.12 0A245.184 245.184 0 1 1 512.00768 896a248.384 248.384 0 0 1-245.12-251.904M723.20768-128H300.16768A207.552 207.552 0 0 0 96.00768 82.048a207.552 207.552 0 0 0 204.16 210.048H723.20768a207.552 207.552 0 0 0 204.16-210.048A207.552 207.552 0 0 0 723.20768-128z"  horiz-adv-x="1024" />

    
    <glyph glyph-name="infor_quit" unicode="&#58896;" d="M662.528341 769.501867v-258.935467a156.398933 156.398933 0 0 0-135.168-158.3104 151.483733 151.483733 0 0 0-165.888 151.483733V769.501867a29.422933 29.422933 0 0 1-40.96 27.306666 478.276267 478.276267 0 1 1 382.976 0 29.354667 29.354667 0 0 1-40.96-27.306666z m-150.186666-335.872a70.0416 70.0416 0 0 0-69.632 70.109866V825.821867A70.0416 70.0416 0 0 0 512.341675 896a69.4272 69.4272 0 0 0 68.949333-70.109867v-322.082133a69.4272 69.4272 0 0 0-68.949333-70.178133z"  horiz-adv-x="1024" />

    
    <glyph glyph-name="infor_password" unicode="&#58897;" d="M374.913297 486.121726H234.816779V646.049259a231.511097 231.511097 0 0 0 21.110434 97.23594 246.22443 246.22443 0 0 0 58.853332 79.324056A270.469444 270.469444 0 0 0 402.420833 876.408877a303.990254 303.990254 0 0 0 110.669853 19.57513 280.193038 280.193038 0 0 0 102.993331-19.57513 297.913008 297.913008 0 0 0 87.640288-53.799622 261.321589 261.321589 0 0 0 60.772462-79.324056 213.855097 213.855097 0 0 0 23.029565-97.23594v-159.927533h-134.339128V615.215231a141.631823 141.631823 0 0 1-39.022318 105.935997 146.685533 146.685533 0 0 1-105.552171 37.487014 128.261881 128.261881 0 0 1-96.59623-37.487014 143.231098 143.231098 0 0 1-37.103188-105.935997V486.121726z m479.142889-65.250433a70.368114 70.368114 0 0 0 51.81652-21.174406 68.576926 68.576926 0 0 0 21.750145-50.5371v-336.807384a143.486982 143.486982 0 0 0-39.662028-99.410955 131.844258 131.844258 0 0 0-42.860579-29.874463 138.369301 138.369301 0 0 0-55.015071-10.875072H228.419677a133.25162 133.25162 0 0 0-54.375361 10.875072 131.012635 131.012635 0 0 0-42.220869 28.786956 121.161099 121.161099 0 0 0-26.228115 41.837043 139.328867 139.328867 0 0 0-9.595652 51.17681V349.287729a70.943854 70.943854 0 0 0 21.110434 50.5371 69.344578 69.344578 0 0 0 51.176811 21.174406h685.769261z"  horiz-adv-x="1024" />

    
    <glyph glyph-name="left_navigation_sta" unicode="&#58899;" d="M461.309414 336.628244V797.422715a462.712316 462.712316 0 1 1 464.118737-462.648388V336.628244h-464.118737zM1025.98721 394.611122H521.913348V896.063928h61.882498A443.597784 443.597784 0 0 0 1025.98721 454.256134z m-385.48705 118.906454h261.018844A325.330613 325.330613 0 0 1 640.50016 772.235004v-258.717428z"  horiz-adv-x="1027" />

    
    <glyph glyph-name="left_navigation_dat" unicode="&#58900;" d="M407.424-59.84h209.216v62.72H407.424v-62.72zM338.752 583.104v-226.048H202.944L512 161.408l309.056 195.648h-135.808V583.104H338.752zM0 896v-1024h353.92v188.096H62.784V769.344h898.432v-709.312h-296.384V-128H1024V896H0z"  horiz-adv-x="1024" />

    
    <glyph glyph-name="left_navigation_per" unicode="&#58901;" d="M446.567394 385.023204A255.232597 255.232597 0 1 0 693.557513 640.198956a251.594538 251.594538 0 0 0-246.990119-255.175752z m0 384.667925a129.605862 129.605862 0 1 1 125.456201-129.549017 127.729988 127.729988 0 0 1-125.456201 129.549017zM784.508995-128l-181.902964 108.345953V196.810481l181.902964 108.345953L966.41196 196.810481v-216.748751z m-121.022316 144.612857l121.022316-72.135895 121.022316 72.135895v144.271788L784.508995 232.963695l-121.022316-72.07905v-144.271788z m-103.286777-61.562785v267.169979l187.587432 111.870323a188.042189 188.042189 0 0 1-99.648717 29.218164h-393.365161A201.571222 201.571222 0 0 1 56.897138 159.406684v-47.294771a201.571222 201.571222 0 0 1 197.705784-204.072388h384.383702z m280.073721 133.698679a55.821472 55.821472 0 1 0-55.764628 57.526812 56.844676 56.844676 0 0 0 55.594094-57.469967z"  horiz-adv-x="1024" />

    
    <glyph glyph-name="left_navigation_spa" unicode="&#58902;" d="M177.557318 421.908047l287.419666-121.532915 47.25018-19.876879 47.023016 19.876879 287.419666 121.532915v-278.276302L512.227164 2.335533l-334.442682 141.409794v278.276302M966.555821 602.844435L512.227164 410.549831 57.444179 602.844435v-538.322667l453.98791-191.897066v-0.624702h1.362986v0.681493L966.555821 64.521768V602.844435z m-9.370529 89.502745l-448.649548-190.420498-448.649548 190.420498L509.330819 895.148134z"  horiz-adv-x="1024" />

    
    <glyph glyph-name="web_ovu_address" unicode="&#58903;" d="M511.99944 895.67872a446.847441 446.847441 0 0 1-447.99944-445.439443c0-353.471558 321.279598-531.199336 416.639479-572.799284a62.335922 62.335922 0 0 1 25.599968-5.375993c1.919998 0 3.839995 0.447999 5.759993 0.575999s3.839995-0.575999 5.759993-0.575999a64.511919 64.511919 0 0 1 25.599968 5.375993c95.359881 41.215948 416.639479 219.391726 416.639479 572.799284a446.847441 446.847441 0 0 1-447.99944 445.439443z m5.759993-888.958888c-1.919998 0.895999-3.839995 1.919998-5.759993 2.943996-1.919998-0.895999-3.839995-2.047997-5.759993-2.943996C424.31955 48.12778 191.99984 188.671604 191.99984 450.239277a319.9996 319.9996 0 0 0 639.9992 0c0-261.631673-232.31971-402.111497-314.239607-443.519445zM511.99944 575.99912a127.99984 127.99984 0 1 1 127.99984-127.99984 127.99984 127.99984 0 0 1-127.99984 127.99984z"  horiz-adv-x="1024" />

    
    <glyph glyph-name="web_ovu_del" unicode="&#58904;" d="M928 0H96V576H32V704h256V896h448v-192h256v-128h-64v-576zM608 768H416v-64h192V768z m192-192H224v-576h576V576z m-384-512H352V448h64v-384z m128 0H480V448h64v-384z m128 0H608V448h64v-384z m256-192H96v128h832v-128z"  horiz-adv-x="1024" />

    
    <glyph glyph-name="web_ovu_plus" unicode="&#58905;" d="M1024 512H640V896H384v-384H0v-256h384v-384h256V256h384V512z"  horiz-adv-x="1024" />

    
    <glyph glyph-name="web_ovu_prints" unicode="&#58906;" d="M1097.142857 896H0v-585.142857h219.428571v-438.857143h658.285715V310.857143h219.428571V896z m-285.988571-948.224L292.571429-54.857143V530.285714h512zM950.857143 457.142857h-73.142857V603.428571H219.428571v-146.285714H146.285714V749.714286h804.571429v-292.571429z"  horiz-adv-x="1097" />

    
    <glyph glyph-name="left_navigation_equ" unicode="&#58907;" d="M838.171292-118.187263l-221.399881 124.158382V254.356026L838.171292 378.514407l221.468024-124.158381v-248.384907zM684.642843 43.722899l153.528449-86.134026 153.528448 86.134026V215.922806L838.171292 302.670127l-153.528449-86.134025V43.722899z m-374.792041-105.623212v-66.031543h434.077327l-182.557796 102.216011v113.255341H67.735143V695.86105h954.970121V336.742131l68.144007-38.0925V895.931856H0v-874.35576h418.063486v-83.680841H309.64637z m602.12045 191.689093a73.663672 73.663672 0 1 0-73.663672 71.551208 72.641512 72.641512 0 0 0 73.45924-71.210488z"  horiz-adv-x="1092" />

    
    <glyph glyph-name="web_ovu_unfurled" unicode="&#58910;" d="M227.442249-1.03935l198.723797 198.276077-90.119675 89.927795-208.573641-208.189881V303.730169H0.06436V-128h450.278576v127.15253H227.442249z m569.244222 769.7589l-198.787758-198.276077 90.119676-89.927795 208.573641 208.189881v-224.627608H1024.0004V896H573.721824v-127.15253h222.900687z"  horiz-adv-x="1024" />

    
    <glyph glyph-name="web_ovu_collect" unicode="&#58911;" d="M800.64 589.824l199.232 199.36L909.504 879.552l-209.088-209.216V896h-128v-434.176H1024v128h-223.36z m-577.344-411.584L24.064-21.12l90.368-90.432 209.088 209.216V-128h128V306.112H0v-128h223.424z"  horiz-adv-x="1024" />

    
    <glyph glyph-name="ovu_web_produced" unicode="&#58912;" d="M30.117647 896v-963.764706h542.117647v120.470588H150.588235V775.529412h662.588236v-481.882353h120.470588V896H30.117647z m843.294118-722.823529h-60.235294v-120.470589h-120.470589v-60.235294h120.470589v-120.470588h60.235294v120.470588h120.470588v60.235294h-120.470588v120.470589z"  horiz-adv-x="1024" />

    
    <glyph glyph-name="ovu_web_dates" unicode="&#58913;" d="M812.828786 806.188906v-32.598101a91.858071 91.858071 0 1 0-183.664968 0v32.598101H394.426787v-32.598101a91.806897 91.806897 0 1 0-183.613793 0v32.598101H51.2V-128h921.13943V806.188906h-159.612993z m124.814392-899.185608H85.947426V562.854573h851.695752v-655.851275zM721.021889 716.224288a57.417691 57.417691 0 0 1 57.05947 57.366517V838.787006A57.366517 57.366517 0 0 1 721.021889 896a57.366517 57.366517 0 0 1-57.05947-57.366517v-65.196202a57.366517 57.366517 0 0 1 57.05947-57.212993z m-418.401999 0a57.417691 57.417691 0 0 1 57.05947 57.366517V838.787006A57.366517 57.366517 0 0 1 302.61989 896a57.366517 57.366517 0 0 1-57.05947-57.366517v-65.196202a57.417691 57.417691 0 0 1 57.05947-57.212993z m281.45927-205.158221H449.336932v-135.509845h134.742228V511.066067z m271.224388 0H720.561319v-135.509845h134.742229V511.066067z m-542.806996-199.58021H177.703148v-135.458671h134.793404v135.458671z m271.224388 0H448.978711v-135.458671h134.742229v135.458671z m271.224387 0h-134.742229v-135.458671h134.742229v135.458671z m-542.806996-199.58021H177.344928v-135.509845h134.793403v135.509845z m271.224388 0H448.62049v-135.509845h134.742229v135.509845z m271.224387 0h-134.742228v-135.509845h134.742228v135.509845z"  horiz-adv-x="1024" />

    
    <glyph glyph-name="ovu_web_del" unicode="&#58914;" d="M171.52 895.146667l851.626667-851.882667-170.666667-170.666667L0.853333 724.48z m680.96 0l170.666667-170.666667-851.626667-851.882667-170.666667 170.666667z"  horiz-adv-x="1024" />

    
    <glyph glyph-name="save" unicode="&#58915;" d="M748.8 896H0v-1024h1024V620.8zM376.32 768h256v-151.68h-256z m350.08-768h-448V305.92h448zM896 0h-105.6V369.92h-576V0H128V768h184.32v-215.04h384V768L896 567.68z"  horiz-adv-x="1024" />

    
    <glyph glyph-name="edit" unicode="&#58916;" d="M887.007941 456.249236v-447.257177H137.617593V758.382407h469.77642V896H0v-1024h1024V456.249236h-136.992059zM297.566768 265.210996l489.167991 489.16799 106.153207-106.090654-489.16799-489.230543zM819.074893 785.905925L927.04215 893.935736l106.153207-106.153207-107.967257-107.904704z"  horiz-adv-x="1033" />

    
    <glyph glyph-name="edit1" unicode="&#58909;" d="M161.132966 734.867034h543.823761v-332.739575l161.132966 159.521636V896H0v-1024h348.047207v161.132966H161.132966V734.867034zM866.089693-128V133.035405l-262.646735-261.035405h262.646735zM866.089693 505.252557l-477.759245-474.536585v-158.715972h158.715972l477.759245 474.536585-158.715972 158.715972z"  horiz-adv-x="1024" />

    
    <glyph glyph-name="home1" unicode="&#58957;" d="M593.00768 896L0 302.99232h226.506912v-430.99232h733.001537V236.927803l-159.655914 159.655914v-366.500768H675.588326V232.208909h-157.296467v-202.12596H386.162826V461.075269l206.844854 207.631336 206.844855-206.844854v-0.786482l159.655914-158.869432v0.786483h227.293394L593.00768 896z"  horiz-adv-x="1186" />

    
    <glyph glyph-name="search1" unicode="&#58958;" d="M874.798784 176.140941a456.211411 456.211411 0 1 1-152.8584-136.311873V236.023613l-8.667229-10.243088a293.897852 293.897852 0 1 0 48.063724 66.186111v-228.499671l191.466965-191.466965V95.772091z"  horiz-adv-x="1024" />

    
    <glyph glyph-name="message" unicode="&#58959;" d="M0 896v-848.252189h430.402802l101.323993-175.747811 199.061296 343.425569H168.574431V727.425569H896.672504v-512H778.311734L681.471103 47.747811h383.775832V896H0zM340.735552 585.751313h363.152364v-179.3345H340.735552z"  horiz-adv-x="1065" />

    
    <glyph glyph-name="return" unicode="&#58960;" d="M541.052632 657.684211V896L29.052632 384l512-512V110.315789L267.368421 384l273.684211 273.684211zM424.421053 384.084211L543.578947 503.157895l119.073685-119.073684L543.578947 265.010526zM826.526316 468.210526h168.421052v-168.421052h-168.421052z"  horiz-adv-x="1024" />

    
    <glyph glyph-name="icon_folding" unicode="&#58908;" d="M1575.384615 671.035077H572.494769V895.212308h1002.889846v-224.098462z m0-399.202462H572.494769V495.931077h1002.889846v-224.098462z m0-399.202461H572.494769v224.098461h1002.889846v-224.098461z m-1575.384615 511.291077l383.527385-511.291077V895.133538z"  horiz-adv-x="1576" />

    
    <glyph glyph-name="icon-fire" unicode="&#58917;" d="M958.872798 269.776908c11.772994-25.048924 13.526419-67.381605-10.019569-87.420744-38.825832 148.039139-134.763209 176.845401-134.763209 176.845402 11.772994-75.146771-40.328767-158.309198-90.927593-220.430529a159.812133 159.812133 0 0 1-20.039139 80.908024c-3.25636-55.608611-45.338552-100.195695-57.111546-154.802349-15.029354-75.146771 11.772994-129.502935 114.473581-188.618395-32.062622 67.381605-15.029354 105.956947 10.019569 141.27593a229.69863 229.69863 0 0 1 33.565558 79.154598 89.675147 89.675147 0 0 0 13.526419-70.637964 185.863014 185.863014 0 0 1 38.825832 134.763209 232.203523 232.203523 0 0 0 72.391389-282.802348c259.005871 147.53816 63.874755 367.968689 30.058708 391.765166zM363.209393 795.804305h423.827789v-328.892368h100.195695V896H263.013699v-366.465753H0v-657.534247h100.195695V429.338552h279.796477v-557.338552h100.195695V529.534247H363.209393V795.804305zM426.332681 737.440313h95.937378v-95.937378h-95.937378zM192.125245 367.968689h95.937377v-95.937378H192.125245zM626.72407 737.440313h95.937378v-95.937378h-95.937378zM626.72407 593.409002h95.937378v-95.937378h-95.937378z"  horiz-adv-x="1061" />

    
    <glyph glyph-name="icon-park" unicode="&#58918;" d="M481.610621 713.804255h104.306383v-104.306383h-104.306383zM672.248919 713.804255h104.306383v-104.306383h-104.306383zM481.610621 550.4h104.306383v-104.306383h-104.306383zM672.248919 550.4h104.306383v-104.306383h-104.306383zM481.610621 386.995745h104.306383v-104.306383h-104.306383zM672.248919 386.995745h104.306383v-104.306383h-104.306383zM534.989345 201.531915a103.761702 103.761702 0 0 1-27.234043-203.982979v-125.548936h54.468085V-2.723404a103.761702 103.761702 0 0 1-27.234042 203.982978z m0-153.6a49.565957 49.565957 0 1 0 49.565957 49.565957 49.565957 49.565957 0 0 0-49.565957-49.293617zM966.648919 232.851064V896H289.338281v-383.72766a205.344681 205.344681 0 1 1-113.565958-394.348936v-245.106383h108.936171v245.106383A204.8 204.8 0 0 1 398.274451 433.021277V787.06383h459.438298v-514.451064a133.719149 133.719149 0 0 1-22.876596-261.991489v-138.348937h71.080851v138.348937a133.719149 133.719149 0 0 1 60.731915 222.229787z m-735.319149-13.617021a96.408511 96.408511 0 1 0 96.408511 96.40851 96.680851 96.680851 0 0 0-97.497872-96.40851zM869.151047 76.8a62.910638 62.910638 0 1 0 62.910638 62.910638A62.910638 62.910638 0 0 0 869.151047 76.8z"  horiz-adv-x="1024" />

    
    <glyph glyph-name="icon-lift" unicode="&#58919;" d="M919.295499 50.598826a36.320939 36.320939 0 0 1 8.266145 7.765166 34.317025 34.317025 0 0 1 7.013698 20.790607V119.483366a34.567515 34.567515 0 0 1-10.270058 25.048924 36.07045 36.07045 0 0 1-11.522505 7.765166 46.340509 46.340509 0 1 1-84.164384 26.30137 45.088063 45.088063 0 0 1 8.266145-26.30137 36.821918 36.821918 0 0 1-11.522505-7.765166 34.317025 34.317025 0 0 1-10.270058-25.048924v-40.078278a35.068493 35.068493 0 0 1 7.013698-20.790607 37.823875 37.823875 0 0 1 8.266145-7.765166v-62.121331h88.923679z m-44.336595 147.287671a20.039139 20.039139 0 1 0-20.039139-20.039139 20.039139 20.039139 0 0 0 19.78865 20.289628z m33.315069-118.731898a8.516634 8.516634 0 0 0-6.011742-8.266145 13.02544 13.02544 0 0 1-9.268102-14.778865v-68.133072H856.67319v67.632094a13.02544 13.02544 0 0 1-9.76908 15.780821 8.767123 8.767123 0 0 0-3.757339 2.755382 8.516634 8.516634 0 0 0-1.753425 5.009785V119.483366a8.015656 8.015656 0 0 0 2.504893 5.761252 8.516634 8.516634 0 0 0 6.011741 2.504893h50.097848a8.767123 8.767123 0 0 0 8.516634-8.516634z m-77.651664-90.927593H628.727984v-17.534247h485.197652v17.534247H830.37182z m-126.998043 84.665362a13.27593 13.27593 0 0 1-9.76908 15.780822 8.015656 8.015656 0 0 0-3.757339 2.755381 8.516634 8.516634 0 0 0-1.753424 5.009785V154.551859a8.015656 8.015656 0 0 0 2.504892 6.011742 8.516634 8.516634 0 0 0 6.011742 2.504892h50.097847a8.516634 8.516634 0 0 0 6.011742-2.254403 8.015656 8.015656 0 0 0 2.504892-6.011742v-57.612524a8.516634 8.516634 0 0 0-1.502935-5.009785 8.767123 8.767123 0 0 0-4.508807-3.005871 13.27593 13.27593 0 0 1-9.268101-14.778865v-85.667319h26.30137V69.385519a36.821918 36.821918 0 0 1 8.266144 8.015655 35.068493 35.068493 0 0 1 7.013699 20.790607V154.551859a34.567515 34.567515 0 0 1-10.270059 25.048924 35.318982 35.318982 0 0 1-11.522505 7.514677 45.338552 45.338552 0 0 1 8.266145 26.30137 46.340509 46.340509 0 1 1-84.164383-26.30137 36.07045 36.07045 0 0 1-11.522505-7.514677 35.068493 35.068493 0 0 1-10.270059-25.048924v-57.612524A34.567515 34.567515 0 0 1 676.320939 69.385519v-79.906067h26.30137z m4.007828 154.050881a19.78865 19.78865 0 1 0 0-28.305284 20.039139 20.039139 0 0 0 0 28.054794z m-129.502935-354.442271h586.395303V408.798434H578.129159z m50.097847 486.199609h486.199608v-436.101761H628.227006z m411.052837-125.244618l29.056752-29.056752 17.784736 17.784736-46.841488 47.592955-46.841487-46.841487 17.784736-17.784736z m46.841488-100.195695l-17.784736 17.784736-29.056752-29.056752-29.056751 29.056752-17.784736-17.784736 46.841487-46.841487zM363.209393 795.804305h423.827789v-328.892368h100.195695V896H263.013699v-366.465753H0v-657.534247h100.195695V429.338552h279.796477v-557.338552h100.195695V529.534247H363.209393z m62.62231-154.551859h95.937377V737.440313H425.831703zM192.125245 271.780822h95.937377v96.187867H192.125245zM722.661448 737.440313H626.223092v-95.937378h95.937378zM626.223092 497.221135h95.937378v96.187867H626.223092z"  horiz-adv-x="1164" />

    
    <glyph glyph-name="icon-property" unicode="&#58920;" d="M480.187867-128h-100.195695V429.338552H100.195695v-557.338552H0V529.534247h480.187867v-657.534247zM1025.001957-128h-100.195695V338.661448h-175.342466v-466.661448h-100.195694V438.857143h375.733855v-566.857143zM887.232877 388.759295h-100.195695V795.804305H363.209393v-316.367906h-100.195694V896h624.219178v-507.240705zM426.332681 737.440313h95.937378v-95.937378h-95.937378zM192.125245 367.968689h95.937377v-95.937378H192.125245zM789.041096 293.823875h95.937378v-95.937378H789.041096zM626.72407 737.440313h95.937378v-95.937378h-95.937378z"  horiz-adv-x="1025" />

    
    <glyph glyph-name="chevron-down" unicode="&#58921;" d="M1691.1133 718.187192l-844.926108-846.187192L0 718.187192 177.812808 896l668.374384-667.1133L1513.300493 896l177.812807-177.812808z"  horiz-adv-x="1691" />

    
    <glyph glyph-name="chevron-right" unicode="&#58922;" d="M309.64355 896l512.381804-512.381805-512.381804-511.618195L201.974646-20.331096l403.949291 403.949291L201.974646 788.331096 309.64355 896z"  horiz-adv-x="1024" />

    
    <glyph glyph-name="chevron-up" unicode="&#58923;" d="M0 49.812808L846.187192 896l844.926108-846.187192L1513.300493-128 846.187192 539.1133l-668.374384-667.1133L0 49.812808z"  horiz-adv-x="1691" />

    
    <glyph glyph-name="chevron-left" unicode="&#58924;" d="M714.35645-128L201.974646 383.618195 714.35645 896l107.668904-107.668904-403.949291-404.712901L822.025354-20.331096l-107.668904-107.668904z"  horiz-adv-x="1024" />

    
    <glyph glyph-name="angle-down" unicode="&#58925;" d="M880.316206-128L0 752.316206 143.683794 896l736.632412-738.656126L1618.972332 896l143.683794-143.683794-882.33992-880.316206z"  horiz-adv-x="1762" />

    
    <glyph glyph-name="angle-double-down" unicode="&#58926;" d="M511.427933 33.322905L94.963128 450.931844 13.729609 369.698324l497.698324-497.698324L1010.270391 369.698324 929.036872 450.931844 511.427933 33.322905zM1010.270391 814.76648L929.036872 896 511.427933 478.391061 94.963128 896 13.729609 814.76648l497.698324-497.698324L1010.270391 814.76648z"  horiz-adv-x="1024" />

    
    <glyph glyph-name="angle-double-up" unicode="&#58927;" d="M511.427933 734.677095L929.036872 317.068156l81.233519 81.23352L511.427933 896 13.729609 398.301676l81.233519-81.23352 416.464805 417.608939zM13.729609-47.910615l81.233519-80.089385 416.464805 416.464804L929.036872-128l81.233519 80.089385-498.842458 498.842459L13.729609-47.910615z"  horiz-adv-x="1024" />

    
    <glyph glyph-name="check-square-o" unicode="&#58928;" d="M1024-128H0V896h1024zM146.285714 18.285714h731.428572V749.714286H146.285714z"  horiz-adv-x="1024" />

    
    <glyph glyph-name="angle-up" unicode="&#58929;" d="M880.316206 896l882.33992-880.316206-143.683794-143.683794-738.656126 738.656126L143.683794-128 0 15.683794 880.316206 896z"  horiz-adv-x="1762" />

    
    <glyph glyph-name="circle-o" unicode="&#58930;" d="M512-128a512 512 0 1 0 512 512 512 512 0 0 0-512-512zM512 768a384 384 0 1 1 384-384 384 384 0 0 1-384 384z"  horiz-adv-x="1024" />

    
    <glyph glyph-name="dot-circle-o" unicode="&#58931;" d="M512-128a512 512 0 1 0 512 512 512 512 0 0 0-512-512zM512 768a384 384 0 1 1 384-384 384 384 0 0 1-384 384zM512 384m-234.88 0a234.88 234.88 0 1 1 469.76 0 234.88 234.88 0 1 1-469.76 0Z"  horiz-adv-x="1024" />

    
    <glyph glyph-name="check-square" unicode="&#58932;" d="M0 896v-1024h1024V896z m431.542857-808.96L163.84 354.011429 267.702857 457.142857 431.542857 293.302857l343.04 343.04L877.714286 530.285714z"  horiz-adv-x="1024" />

    
    <glyph glyph-name="web_ovu_minus" unicode="&#58933;" d="M0 896h5120v-1024H0z"  horiz-adv-x="4096" />

    
    <glyph glyph-name="chevron-circle-up" unicode="&#58934;" d="M510.541311-125.082621a510.541311 510.541311 0 1 1-510.541311 510.54131 510.541311 510.541311 0 0 1 510.541311-510.54131z m-4.376069 616.296296l-269.85755-269.85755-72.934473 72.934473 342.792023 340.603989 342.062678-342.062678-72.934473-72.934473z"  horiz-adv-x="1024" />

    
    <glyph glyph-name="all" unicode="&#58935;" d="M3.038576 896h460.344213v-460.344214H3.038576zM1020.961424 896H560.617211v-460.344214h460.344213V896zM3.038576 332.344214h460.344213v-460.344214H3.038576zM560.617211 332.344214h460.344213v-460.344214H560.617211z"  horiz-adv-x="1024" />

    
    <glyph glyph-name="chevron-circle-left" unicode="&#58936;" d="M511.640702 896a511.640702 511.640702 0 1 1 511.640702-511.640702A511.640702 511.640702 0 0 1 511.640702 896z m163.121403-775.365614l-71.859649-71.859649L260.850526 392.982456l341.333334 339.177544 71.859649-71.859649L404.569825 392.982456z"  horiz-adv-x="1024" />

    
    <glyph glyph-name="classification" unicode="&#58937;" d="M3.038576 896h460.344213v-460.344214H3.038576zM869.032641 744.071217v-156.486647H712.545994V744.071217h156.486647m151.928783 151.928783H560.617211v-460.344214h460.344213V896zM3.038576 332.344214h460.344213v-460.344214H3.038576zM560.617211 332.344214h460.344213v-460.344214H560.617211z"  horiz-adv-x="1024" />

    
    <glyph glyph-name="data" unicode="&#58938;" d="M1179.151515-41.804714v689.56229h-216.350168v-689.56229H838.680135V321.077441H622.329966v-362.882155H498.208754V443.474747H281.858586v-485.279461H86.195286V896H0v-1024h1387.744108v86.195286h-208.592593z"  horiz-adv-x="1387" />

    
    <glyph glyph-name="computer" unicode="&#58939;" d="M0 896v-808.546584h1272.049689V896z m1113.043478-649.540373H159.006211V736.993789h954.037267zM430.906832 31.006211h411.031056v-159.006211H430.906832z"  horiz-adv-x="1272" />

    
    <glyph glyph-name="chevron-circle-right" unicode="&#58940;" d="M0 385.458689a510.541311 510.541311 0 1 1 510.541311 510.541311 510.541311 510.541311 0 0 1-510.541311-510.541311z m619.213675 5.834758l-269.85755 269.85755 72.934473 72.934473 342.062678-342.062678-342.792022-343.521367-72.934473 72.934472z"  horiz-adv-x="1024" />

    
    <glyph glyph-name="ful-screen" unicode="&#58941;" d="M288.091168 249.80057L116.695157 79.133903 0 195.099715V-125.082621h323.099715l-116.695157 116.695157 172.125357 167.749287z m448.547009 267.669515l171.396011 171.396012L1021.082621 572.900285V896H700.900285l116.695157-116.695157-171.396012-171.396011z m171.396011-437.606837L736.638177 249.80057 646.19943 159.361823l171.396012-171.396011L700.900285-125.082621H1021.082621V195.099715zM323.099715 896H0v-323.099715l116.695157 116.695157 171.396011-172.125357 90.438747 90.438747L207.133903 779.304843z m98.461539-510.541311L510.541311 293.561254 602.438746 385.458689 510.541311 474.438746z"  horiz-adv-x="1024" />

    
    <glyph glyph-name="chevron-circle-down" unicode="&#58942;" d="M0 384.359298A511.640702 511.640702 0 1 1 511.640702 896 511.640702 511.640702 0 0 1 0 384.359298z m775.365614 162.402807l71.859649-71.859649L503.017544 132.850526 163.84 474.902456l71.859649 71.859649L503.017544 277.288421z"  horiz-adv-x="1024" />

    
    <glyph glyph-name="exit" unicode="&#58943;" d="M174.956522 762.434783h216.347826V896H24.695652v-1024h366.608696V5.565217H174.956522V762.434783zM999.304348 384l-264.347826 288v-212.869565H369.73913v-150.26087h365.217392v-212.173913l264.347826 287.304348z"  horiz-adv-x="1024" />

    
    <glyph glyph-name="letter" unicode="&#58944;" d="M1298.550725 666.898551V61.217391H185.507246V665.971014L0 826.434783V-124.289855h1484.057971V826.434783z m23.188405 109.449275L1460.869565 896H25.043478L742.028986 270.84058zM965.565217 710.492754L742.028986 533.333333 520.347826 710.492754z"  horiz-adv-x="1484" />

    
    <glyph glyph-name="map" unicode="&#58945;" d="M1058.568642 365.179295l-147.492873-47.627907 103.705926-290.376594H212.789197l102.937735 290.376594-147.492873 47.627907L0-128h1229.107277zM614.553638 143.171793s328.018005 161.32033 328.018005 424.810202a328.018005 328.018005 0 0 1-655.267817 0C285.767442 304.492123 614.553638 143.171793 614.553638 143.171793zM614.553638 742.36159a172.843211 172.843211 0 0 0 172.843211-172.84321C785.860465 469.653413 691.372843 378.23856 614.553638 324.465116c-76.819205 53.773443-172.843211 145.188297-172.84321 243.516879A172.843211 172.843211 0 0 0 614.553638 742.36159z m0-251.198799a83.732933 83.732933 0 1 1-85.269317 83.732933A83.732933 83.732933 0 0 1 614.553638 491.162791z"  horiz-adv-x="1229" />

    
    <glyph glyph-name="emergency-work" unicode="&#58946;" d="M639.890617 640.212035H201.09646V896h438.794157v-255.787965zM274.298936 712.993808h294.492724V822.797523h-294.492724v-109.803715z m54.691506-183.006192h347.501413v-73.202477H328.990442V530.408319z m0-183.006193h288.602869v-73.202477H328.990442V349.084943z m0-183.006192h238.118402v-73.202477H328.990442v74.043885zM164.495221 530.408319h91.292744v-73.202476H164.495221V530.408319z m0-183.006192h91.292744v-73.202477H164.495221V349.084943z m0-183.006192h91.292744v-73.202477H164.495221v73.623181zM767.7846 395.362371h73.202477V804.707256h-228.442213v-73.202477h155.239736v-336.142408zM590.247558-18.189553H73.202477V731.504779h155.239735V804.707256H0v-896.099286h590.247558v73.202477zM855.291009 349.084943A238.539106 238.539106 0 1 1 1093.830115 112.228653 238.539106 238.539106 0 0 1 855.291009 349.084943z m-119.900609-406.820662l101.389638 164.915925-137.990876 31.552792 213.296872 168.281556-42.070389-129.156095 144.301434-33.656311z"  horiz-adv-x="1096" />

    
    <glyph glyph-name="home" unicode="&#58947;" d="M554.909091 717.090909l298.909091-298.909091v-418.181818h-107.636364V213.090909H363.636364v-213.090909H256V418.181818l298.909091 298.909091z m0 178.909091L0 341.090909h128v-469.090909h363.636364v213.818182h127.272727v-213.090909h363.636364V341.090909h128L554.909091 896"  horiz-adv-x="1110" />

    
    <glyph glyph-name="search" unicode="&#58948;" d="M905.928295 93.618285l-4.359704-4.359704a502.092573 502.092573 0 1 1-94.460252-94.460253l-4.359704-4.359704 117.712007-117.712007L1020.007215-24.82034z m-402.545999-55.949535a355.315873 355.315873 0 1 0 251.409595 103.906278 353.136021 353.136021 0 0 0-251.409595-105.359512z"  horiz-adv-x="1024" />

    
    <glyph glyph-name="picture" unicode="&#58949;" d="M0 896v-1024h1409.982788V896z m1233.73494-847.752151l-339.277109 386.864027L587.786575 102.884682 394.795181 348.75043 176.247849 48.247849V719.752151h1057.487091zM469.700516 439.518072a97.817556 97.817556 0 1 1-97.817556 97.817556 97.817556 97.817556 0 0 1 97.817556-97.817556z"  horiz-adv-x="1412" />

    
    <glyph glyph-name="download" unicode="&#58950;" d="M0 50.349815h1054.984502v-178.349815H0zM527.492251 138.769004l406.577122 329.493727H651.430258V896H403.554244v-427.737269H120.915129l406.577122-329.493727z"  horiz-adv-x="1054" />

    
    <glyph glyph-name="space" unicode="&#58951;" d="M534.780452 896L0 677.158279v-548.971554l534.033552-256.186725 534.033552 256.186725V677.158279z m-74.690007-906.736689L74.690007 175.24143V559.894967L459.343545 373.169949z m534.033552 186.725019l-384.653537-186.725019V373.169949l281.581327 138.923414 102.32531 47.801604z"  horiz-adv-x="1068" />

    
    <glyph glyph-name="grow" unicode="&#58952;" d="M46.913112 387.235387h203.020537v-515.235387H46.913112zM410.085308 608.8594H613.105845v-736.8594H410.085308zM774.066351 896h203.020537v-1024H774.066351z"  horiz-adv-x="1024" />

    
    <glyph glyph-name="toggle" unicode="&#58953;" d="M392.006029 682.248681V896L0 489.332329h1118.14318v192.916352H392.006029zM0 85.751319h726.137151v-213.751319L1118.14318 278.667671H0v-192.916352z"  horiz-adv-x="1118" />

    
    <glyph glyph-name="plan-work" unicode="&#58954;" d="M663.614827 630.72859H208.552194V896h455.062633v-265.27141zM284.468683 706.208777h305.411164V820.083511h-305.411164v-113.874734z m56.719216-189.791223h360.385173v-75.916489H341.187899V516.853856z m0-189.791223h342.933107v-75.916489H341.187899V328.80784z m0-189.791222h322.86323l-75.916489-75.916489H341.187899v76.789092zM170.59395 516.853856h94.67746v-75.916489H170.59395V516.853856z m0-189.791223h94.67746v-75.916489H170.59395V328.80784z m0-189.791223h94.67746v-75.916489H170.59395v76.352791zM796.250533 257.254367l75.916489 75.916489V801.322539h-236.911803v-75.916489h160.995314v-468.151683zM522.253089-52.083511H75.916489V725.40605h160.995313V801.322539H0v-929.322539h522.253089v75.916489zM585.51683-37.249254l0.436302-90.750746h90.314444l315.882403 315.882403-90.750746 90.750746-315.882403-315.882403zM1004.366425 381.600341l-79.406902-79.406903 90.750745-90.750745 79.406903 79.843204-90.750746 90.314444z"  horiz-adv-x="1095" />

    
    <glyph glyph-name="phone" unicode="&#58955;" d="M79.932489 896v-1024h864.135022V896z m440.708861-977.912799a51.127989 51.127989 0 1 0 51.127989 51.127989 51.127989 51.127989 0 0 0-51.127989-51.127989z m288.045007 144.022504h-590.492264V757.738397h587.611814zM434.227848 714.531646h155.544304V679.966245H434.227848z"  horiz-adv-x="1024" />

    
    <glyph glyph-name="totality-work" unicode="&#58956;" d="M1107.523654 173.93801A192.104405 192.104405 0 0 1 918.760196 361.448613h-20.045677v-208.809135h211.314845z m-23.386623-34.244698H881.174551v200.039151h-30.068515a233.866232 233.866232 0 1 1 233.866232-233.866231v4.176182z m-233.448613-208.809136a173.729201 173.729201 0 0 0-30.068516 344.535074v-197.533442h201.709625a173.729201 173.729201 0 0 0-171.641109-145.748777zM635.19739 642.088091H199.621533V896h435.575857v-253.911909zM272.287113 714.336052h292.332789V823.334421h-292.332789v-108.998369z m54.290375-181.663948h344.952691v-72.665579H326.577488V533.089723z m0-181.663947h286.486134v-72.66558H326.577488V353.096248z m0-181.663948h236.371941v-72.665579H326.577488v73.500815zM163.288744 533.089723h90.623165v-72.665579H163.288744V533.089723z m0-181.663948h90.623165v-72.665579H163.288744V353.096248z m0-181.663948h90.623165v-72.665579H163.288744v73.083197zM762.153344 399.034258h72.665579V805.376835h-226.766721v-72.665579h154.101142v-333.676998zM585.918434-11.484502H72.665579V732.711256h154.101142V805.376835H0v-889.526917h585.918434v72.66558z"  horiz-adv-x="1110" />

    
    <glyph glyph-name="bigicon-entrance" unicode="&#58962;" d="M809.829302-57.895025H108.312186V825.895025h701.517116v-210.314925h70.104975V896H38.207211v-1024h841.727066v195.826563h-70.104975v-125.721588zM544.131447 505.281607v-316.874487l441.661342-83.191237V588.472843z m394.924692-343.514377l-348.188042 65.431309V466.490187l348.188042 65.664993zM655.364674 454.806025l-32.248289-6.075765v-203.53811l32.715655-6.309448-0.467366 215.923323zM459.070744 719.569147m-48.606116 0a48.606116 48.606116 0 1 1 97.212232 0 48.606116 48.606116 0 1 1-97.212232 0ZM461.173893 407.835691v46.73665a104.923779 104.923779 0 0 1 0-210.314924v46.73665a58.187129 58.187129 0 0 0 0 116.841624zM462.108626 557.860338a208.211775 208.211775 0 1 1 0-416.189868v46.73665a161.475126 161.475126 0 0 0 0 322.716568z"  horiz-adv-x="1024" />

    
    <glyph glyph-name="bigicon-camera" unicode="&#58963;" d="M0 896h1220.054349v-130.05796H0zM1219.77763 672.964435H0V480.921405a608.781939 608.781939 0 0 1 1220.054349 2.213753zM608.781939-36.543243A529.363568 529.363568 0 0 0 83.015719 480.921405v109.027311h1053.746192v-118.435759A529.086849 529.086849 0 0 0 608.781939-36.543243zM608.781939 518.00176a255.134976 255.134976 0 1 1 255.134976-255.134976A255.134976 255.134976 0 0 1 608.781939 518.00176z m0-482.598046a227.46307 227.46307 0 1 0 227.46307 227.46307A227.739789 227.739789 0 0 0 608.781939 35.680433zM610.165534 262.866784m-114.838411 0a114.838411 114.838411 0 1 1 229.676822 0 114.838411 114.838411 0 1 1-229.676822 0ZM977.371731 489.222977m-57.557565 0a57.557565 57.557565 0 1 1 115.11513 0 57.557565 57.557565 0 1 1-115.11513 0Z"  horiz-adv-x="1230" />

    
    <glyph glyph-name="bigicon-ammeter" unicode="&#58964;" d="M0 896v-827.179853h1080.686149V896z m1007.699691-754.193395H72.986458V823.013542h934.713233zM123.590402-27.521977h833.505345v-100.478023H123.590402zM281.24115 355.656926H224.311713a316.27465 316.27465 0 0 0 119.941079 213.120456l21.166072-29.194583 59.119031 42.575433-17.760038 24.32882A316.27465 316.27465 0 0 0 681.206938 604.05417l-15.083868-20.922785 59.11903-42.575433 16.786886 24.328819a316.27465 316.27465 0 0 0 112.642432-207.28154h-48.657638v-72.986457h124.806842v36.493228a389.261107 389.261107 0 1 1-780.468519 0v-36.493228h132.105488zM482.683773 310.405322a56.686149 56.686149 0 0 1 113.615586 0c0 31.384177-56.686149 258.615348-56.686149 258.615348s-56.929437-227.474459-56.929437-258.615348z"  horiz-adv-x="1080" />

    
    <glyph glyph-name="bigicon-infrared" unicode="&#58965;" d="M637.184 252.416v-76.8a219.648 219.648 0 0 1 0 439.552v-76.8a142.848 142.848 0 0 0 0-285.952zM635.136 844.8v-76.8a372.736 372.736 0 0 0 0-745.472v-76.8a449.536 449.536 0 0 1 0 899.072zM444.928 504.32V896H0v-1024h444.928V264.96a119.552 119.552 0 0 1 0 239.36z m-76.8-555.52H76.8V819.2h291.328z"  horiz-adv-x="1085" />

    
    <glyph glyph-name="bigicon-handwork" unicode="&#58966;" d="M884.731523 448.062407A358.438831 358.438831 0 0 1 537.43464 583.425219l-177.797039 233.980904a165.943903 165.943903 0 1 1-262.42843-200.55506L276.665649 382.870159a357.727643 357.727643 0 0 1 471.754811-478.155504l40.537725 18.490892L584.847184 191.323482l16.59439 35.796471 41.960102 8.297195 204.585126-267.64381 28.447526 34.374095a355.594078 355.594078 0 0 1 8.297195 445.914974z m-37.218847-363.417148L672.56039 313.17372l-120.901987-23.706272-50.020233-107.863537 174.715223-228.528461a287.082953 287.082953 0 0 0-327.146552 415.808009l11.141948 20.387393L153.867161 659.996477a94.825088 94.825088 0 0 0 149.349513 114.027168L509.461239 502.823895l23.706272 5.452442a287.082953 287.082953 0 0 0 315.293416-424.816392zM230.438419 717.128593m-55.235613 0a55.235613 55.235613 0 1 1 110.471227 0 55.235613 55.235613 0 1 1-110.471227 0Z"  horiz-adv-x="1024" />

    
    <glyph glyph-name="icon-classify" unicode="&#58967;" d="M0 896l568.052902-533.443057L1136.105805 896z m413.813373-164.020573h308.479059L568.052902 587.52094zM303.212344 166.936076l164.020573-131.667891V385.128582L303.212344 541.625276v-374.6892zM668.872888 2.915503l164.020573-130.915503v669.625276L668.872888 385.128582v-382.213079z"  horiz-adv-x="1136" />

    
    <glyph glyph-name="bigicon-sensors" unicode="&#58968;" d="M993.992605 374.711452v131.25011H16.179292v-131.25011h53.178923v-67.887987a435.614586 435.614586 0 0 1 871.229173 1.584053v66.303934zM872.6994 298.9032a367.726599 367.726599 0 0 0-735.453197 7.693972v67.887987h735.453197V298.9032zM505.199095 117.642273m-88.254384 0a88.254384 88.254384 0 1 1 176.508768 0 88.254384 88.254384 0 1 1-176.508768 0ZM337.515766 551.8991h67.887987a99.795342 99.795342 0 1 0 199.590683 0h67.887988a167.683329 167.683329 0 1 1-335.366658 0zM505.199095 819.37777A269.51531 269.51531 0 0 0 774.261819 550.088753h67.887987a337.177004 337.177004 0 1 1-674.127716 0h67.887988A269.51531 269.51531 0 0 0 505.199095 819.37777z"  horiz-adv-x="1024" />

    
    <glyph glyph-name="bigicon-patrol" unicode="&#58969;" d="M254.884389 354.206614V-127.737503h579.067931V354.206614l192.410151 341.245834H62.474237z m510.556267 38.849525l-10.237375-18.112278V-48.988464H333.633427V374.943861l-10.237375 18.112278-125.998462 222.334786H892.489105zM488.769034 365.493976h111.298641v-206.059985h-111.298641zM0 896h1087.524225v-85.048962H0z"  horiz-adv-x="1087" />

    
    <glyph glyph-name="bigicon-lift" unicode="&#58970;" d="M0 896v-1024h1039.681829V896z m969.464686-953.782857H70.217143V825.782857h899.247543zM912.822857 107.227429H475.370057v166.414628a89.175771 89.175771 0 0 1 58.9824 90.814172v118.432914a95.729371 95.729371 0 0 1-92.218514 95.495314 100.176457 100.176457 0 1 1-125.454629 0 95.729371 95.729371 0 0 1-92.218514-95.495314v-118.432914c0-42.832457 17.788343-78.409143 56.407771-90.814172v-166.414628H122.88v-73.259886H912.822857zM379.406629 704.3072a48.215771 48.215771 0 0 0 30.193371-85.898971l-30.193371-23.405715-30.193372 23.405715a48.215771 48.215771 0 0 0 30.193372 85.898971z m-103.453258-339.850971v118.432914a43.768686 43.768686 0 0 0 42.5984 43.768686l60.854858 2.340571 60.854857-2.340571a43.768686 43.768686 0 0 0 42.5984-43.768686v-118.432914c0-18.958629-4.681143-35.810743-23.405715-41.662172L423.643429 310.857143v-201.055086h-91.282286V310.857143l-35.810743 11.4688c-18.490514 6.319543-20.597029 23.171657-20.597029 42.130286zM773.3248 584.704l54.301257-54.301257 49.620114 49.620114-103.921371 103.921372-103.921371-103.921372 49.620114-49.620114 54.301257 54.301257zM877.246171 383.1808l-49.620114 49.620114-54.301257-54.0672-54.301257 54.0672-49.620114-49.620114 103.921371-103.687314 103.921371 103.687314z"  horiz-adv-x="1039" />

    
    <glyph glyph-name="icon-correct" unicode="&#58971;" d="M511.642208 896a511.642208 511.642208 0 1 1 511.642208-511.642208A511.642208 511.642208 0 0 1 511.642208 896z m-58.677847-729.179595l-64.402516 64.402516-25.045423 25.045423-157.428372 157.428372 89.447939 90.163522 157.428372-157.428372 274.784067 274.784067 90.163522-90.163522z"  horiz-adv-x="1024" />

    
    <glyph glyph-name="bigicon-airconditio" unicode="&#58972;" d="M1054.874372 896H51.457286L0 563.328643v-244.42211h1106.331658v244.42211z m-25.728643-499.907538H77.18593v161.318593L117.579899 818.81407h871.17186L1029.145729 557.411055zM154.371859 565.386935h801.961809v-25.728644H154.371859zM740.984925 759.380905h209.173869v-61.234171H740.984925zM351.710553 60.076382c-33.447236 25.728643-51.457286 49.913568-48.369849 67.923618s28.81608 34.733668 37.563819 38.592965l-19.811056 47.59799c-6.432161-2.572864-62.00603-27.015075-68.952763-79.244221-5.145729-38.078392 17.752764-77.18593 67.923618-115.521608 14.665327-11.320603 31.388945-28.044221 25.728643-43.481407-9.262312-27.015075-68.438191-51.457286-99.055277-51.457287v-51.457286c41.165829 0 128.643216 30.102513 147.682413 87.2201 9.005025 23.413065 7.975879 60.976884-42.709548 99.827136zM589.443216 60.076382c-33.447236 25.728643-51.457286 49.913568-48.369849 67.923618s28.81608 34.733668 37.563819 38.592965l-19.811055 47.59799c-6.432161-2.572864-62.00603-27.015075-68.952764-79.244221-5.145729-38.078392 17.752764-77.18593 67.923618-115.521608 14.665327-11.320603 31.388945-28.044221 25.728643-43.481407-9.262312-27.015075-68.438191-51.457286-99.055276-51.457287v-51.457286c41.165829 0 128.643216 30.102513 147.682412 87.2201 9.262312 23.413065 8.233166 60.976884-42.709548 99.827136zM827.433166 60.076382c-33.447236 25.728643-51.457286 49.913568-48.369849 67.923618s28.81608 34.733668 37.563819 38.592965L797.58794 214.190955c-6.432161-2.572864-62.00603-27.015075-68.952764-79.244221-5.145729-38.078392 17.752764-77.18593 67.923618-115.521608 14.665327-11.320603 31.388945-28.044221 25.728643-43.481407-9.262312-27.015075-68.438191-51.457286-99.055276-51.457287v-51.457286c41.165829 0 128.643216 30.102513 147.682412 87.2201 8.233166 23.413065 7.461307 60.976884-43.481407 99.827136z"  horiz-adv-x="1106" />

    
    <glyph glyph-name="icon-file" unicode="&#58973;" d="M551.501484 896H58.492582v-1024h907.014836V509.341246z m270.433234-881.186944H201.305638V753.186944h293.982196v-303.857567h329.68546z"  horiz-adv-x="1024" />

    
    <glyph glyph-name="icon-download" unicode="&#58974;" d="M0 50.349815h1054.984502v-178.349815H0zM527.492251 138.769004l406.577122 329.493727H651.430258V896H403.554244v-427.737269H120.915129l406.577122-329.493727z"  horiz-adv-x="1054" />

    
    <glyph glyph-name="icon-folders" unicode="&#58975;" d="M735.715808 714.117229l-86.394316 181.882771H0v-1024h1336.838366V714.117229z m428.333926-670.238011H172.788632V723.211368h368.312611l39.104796-82.756661 47.289521-97.307282h536.554174zM1302.280639 769.591474L1259.538188 859.623446H762.998224l43.651865-90.031972h495.63055z"  horiz-adv-x="1336" />

    
    <glyph glyph-name="icon-prompting" unicode="&#58976;" d="M511.642208 896a511.642208 511.642208 0 1 1 511.642208-511.642208A511.642208 511.642208 0 0 1 511.642208 896z m100.181691-783.563941a96.603774 96.603774 0 1 0-193.207547 0V379.348707a96.603774 96.603774 0 0 0 193.207547 0zM513.073375 553.951083a98.750524 98.750524 0 1 0 98.750524 99.466108 98.750524 98.750524 0 0 0-98.750524-99.466108z"  horiz-adv-x="1024" />

    
    <glyph glyph-name="icon-error" unicode="&#58977;" d="M511.642208 896a511.642208 511.642208 0 1 1 511.642208-511.642208A511.642208 511.642208 0 0 1 511.642208 896z m241.151642-668.354997l-84.438853-84.438853-156.712789 156.712788L357.791754 143.20615 271.20615 227.645003 429.350105 384.357792 271.20615 538.208246 357.791754 624.79385 511.642208 466.649895l156.712789 158.143955L752.79385 538.208246 596.081062 384.357792z"  horiz-adv-x="1024" />

    
    <glyph glyph-name="icon-quit" unicode="&#58978;" d="M174.956522 762.434783h216.347826V896H24.695652v-1024h366.608696V5.565217H174.956522V762.434783zM999.304348 384l-264.347826 288v-212.869565H369.73913v-150.26087h365.217392v-212.173913l264.347826 287.304348z"  horiz-adv-x="1024" />

    
    <glyph glyph-name="icon-open" unicode="&#58979;" d="M1412.413793 446.675862H209.213793l-52.965517-146.537931V727.393103h331.917241l35.310345-80.331034 42.372414-95.337931h484.634483v-80.331035h155.365517V719.448276H663.834483l-77.682759 176.551724H0v-1022.234483l11.475862 30.896552-11.475862-32.662069h1206.731034v8.827586z m-323.972414-410.482759H233.931034l88.275863 246.289656h853.627586z"  horiz-adv-x="1412" />

    
    <glyph glyph-name="icon-setting" unicode="&#58981;" d="M942.26087 384a432 432 0 0 1-8.347827 84.173913l77.217392 75.826087-111.304348 192-104.347826-28.521739a429.217391 429.217391 0 0 1-146.086957 83.478261L622.26087 896H401.043478l-27.130435-105.043478a429.217391 429.217391 0 0 1-146.086956-84.173913l-104.347826 29.217391L12.869565 544l77.217392-75.826087a428.521739 428.521739 0 0 1 0-168.347826L12.869565 224l110.608696-192 104.347826 29.217391a429.217391 429.217391 0 0 1 145.391304-84.173913l27.130435-105.043478h221.913044l27.130434 105.043478a429.217391 429.217391 0 0 1 146.086957 84.173913l104.347826-28.521739 110.608696 192-76.52174 75.130435a432 432 0 0 1 8.347827 84.173913z m-713.739131 0a283.826087 283.826087 0 1 0 283.826087-283.826087 283.826087 283.826087 0 0 0-284.521739 283.826087z"  horiz-adv-x="1024" />

    
    <glyph glyph-name="icon-running" unicode="&#58982;" d="M554.727016 606.325318l-65.176804-18.104667a268.673267 268.673267 0 0 1-91.247525 51.417256l-17.38048 65.90099H242.602546l-17.380481-65.90099a268.673267 268.673267 0 0 1-91.247525-52.86563L72.41867 606.325318 0 485.386139l47.796322-47.796323a267.949081 267.949081 0 0 1 0-105.731259L0 284.786421l72.41867-120.214992 65.176804 18.104667a268.673267 268.673267 0 0 1 91.247525-52.865629l17.38048-65.90099h134.698728l17.38048 65.90099a268.673267 268.673267 0 0 1 91.247525 52.865629l65.176804-18.104667 72.41867 120.214992L579.349364 332.582744a267.949081 267.949081 0 0 1 0 105.731259l47.796322 47.796322zM312.12447 208.022631a177.425743 177.425743 0 1 0 177.425742 177.425742A177.425743 177.425743 0 0 0 312.12447 208.022631zM734.325318 538.975955l43.451203 11.586987a177.425743 177.425743 0 0 1 60.107496-34.760962l11.586987-43.451202H941.442716l11.586987 43.451202a177.425743 177.425743 0 0 1 60.831683 34.760962l43.451202-11.586987 45.623763 78.936351-31.864215 31.140028a177.425743 177.425743 0 0 1 0 72.41867l30.415841 29.691655-46.347949 78.936351-43.451202-11.586987a177.425743 177.425743 0 0 1-59.38331 34.036775L941.442716 896h-91.971712l-11.586987-43.451202a177.425743 177.425743 0 0 1-60.107496-34.760962l-43.451203 11.586987L688.701556 751.162659l31.864215-31.140028a177.425743 177.425743 0 0 1 0-72.418671l-31.864215-31.140028z m160.769449 262.879773a117.318246 117.318246 0 1 0-117.318246-117.318246 117.318246 117.318246 0 0 0 117.318246 117.318246zM1081.21075 86.359264a178.874116 178.874116 0 0 1 0 34.760962l31.864215 31.140029-45.623763 78.93635-43.451202-11.586987a177.425743 177.425743 0 0 1-60.107496 34.760962l-11.586988 43.451202h-94.868458l-11.586987-43.451202a177.425743 177.425743 0 0 1-60.107497-34.760962l-43.451202 11.586987-45.623762-78.93635 31.864215-31.140029a177.425743 177.425743 0 0 1 0-72.41867l-31.864215-31.140028 45.623762-78.936351 43.451202 11.586987a177.425743 177.425743 0 0 1 60.107497-34.760962l11.586987-43.451202h91.247525l11.586987 43.451202a177.425743 177.425743 0 0 1 60.107496 34.760962l43.451203-11.586987 45.623762 78.936351-31.864215 31.140028a178.874116 178.874116 0 0 1 3.620934 37.657708z m-178.14993-117.318246a117.318246 117.318246 0 1 0 117.318246 117.318246 117.318246 117.318246 0 0 0-117.318246-117.318246z"  horiz-adv-x="1115" />

    
    <glyph glyph-name="icon-warning" unicode="&#58983;" d="M1257.812323-42.606439L679.289445 871.254921a52.903272 52.903272 0 0 1-85.327858 0L11.172316-42.606439a52.903272 52.903272 0 0 1 44.370486-85.327859h1157.899035a52.903272 52.903272 0 0 1 44.370486 85.327859z m-628.866315 21.331964a78.501629 78.501629 0 1 0 78.50163 78.50163 78.501629 78.501629 0 0 0-78.50163-75.088516z m78.50163 284.995046a80.208187 80.208187 0 0 0-160.416373 0l-17.065572 284.995046a98.127037 98.127037 0 1 0 195.400795 0z"  horiz-adv-x="1278" />

    
    <glyph glyph-name="icon-AddImage" unicode="&#58961;" d="M744.84586 680.112102H296.112102l-65.22293-150.012739H0V-128h1043.566879V530.099363h-233.498089zM913.121019 2.44586H130.44586V399.653503h185.88535l33.915924 78.267516 31.307006 71.092994h277.197452l31.307007-71.092994 33.915923-78.267516H913.121019zM515.913376 379.434395a166.970701 166.970701 0 1 1 166.9707-166.970701 166.970701 166.970701 0 0 1-166.9707 166.970701z m0-268.066242a101.747771 101.747771 0 1 0 101.74777 101.747771A101.747771 101.747771 0 0 0 515.913376 113.324841zM222.410191 326.603822m-44.351592 0a44.351592 44.351592 0 1 1 88.703184 0 44.351592 44.351592 0 1 1-88.703184 0ZM955.515924 809.905732V896h-60.657325v-86.094268H808.764331v-60.005095h86.094268v-86.094268h60.657325V749.900637h86.094267v60.005095h-86.094267z"  horiz-adv-x="1043" />

    
    <glyph glyph-name="icon-pause" unicode="&#58984;" d="M284.215054 598.709677h153.462365v-430.107526H284.215054zM585.634409 598.709677h153.462365v-430.107526H585.634409zM512-128a512 512 0 1 0 512 512 512 512 0 0 0-512-512zM512 826.494624a443.182796 443.182796 0 1 1 443.182796-443.182796A443.182796 443.182796 0 0 1 512 826.494624z"  horiz-adv-x="1024" />

    
    <glyph glyph-name="icon-speed" unicode="&#58985;" d="M1048.453731 383.490547L426.921393 896v-351.522388L0 896v-1024L426.921393 223.522388v-351.522388l621.532338 511.490547z"  horiz-adv-x="1048" />

    
    <glyph glyph-name="icon-camera" unicode="&#58986;" d="M943.832123 896H375.218725l-82.647296-190.088781H0v-833.911219h1322.356739V705.911219h-295.87732zM1157.062147 37.294592H165.294592V540.616626h235.544795l42.976594 99.176756 39.670702 90.912026h351.251009l39.670702-90.085553 42.976594-99.176756H1157.062147zM653.740113 515.822437a211.577078 211.577078 0 1 1 211.577078-211.577078A211.577078 211.577078 0 0 1 653.740113 515.822437z m0-339.680387a128.929782 128.929782 0 1 0 128.103309 128.103309 128.929782 128.929782 0 0 0-128.103309-128.929782zM281.82728 448.051655m-56.200161 0a56.200161 56.200161 0 1 1 112.400322 0 56.200161 56.200161 0 1 1-112.400322 0Z"  horiz-adv-x="1322" />

    
    <glyph glyph-name="icon-start" unicode="&#58987;" d="M512 896a512 512 0 1 1 512-512A512 512 0 0 1 512 896z m0-954.494624a443.182796 443.182796 0 1 0 443.182796 443.182796 443.182796 443.182796 0 0 0-443.182796-443.182796zM346.150538 141.763441l419.784946 242.236559-419.784946 242.924731v-485.16129z"  horiz-adv-x="1024" />

    
    <glyph glyph-name="cooperation" unicode="&#58988;" d="M873.722714 669.451327V896h-604.129794v-226.548673H0v-797.451327h1144.070796V669.451327z m-453.097345 75.516225h302.064896v-49.840708h-302.064896z m571.657817-226.548673v-151.032448h-179.728614V442.902655h-75.516224v-75.516224H404.011799V442.902655h-75.516224v-75.516224H151.032448V518.418879zM151.032448 23.032448V291.870206h177.463127v-58.902654h75.516224V291.870206h333.026549v-58.902654h75.516224V291.870206h180.483776v-268.082595z"  horiz-adv-x="1144" />

    
    <glyph glyph-name="derivation" unicode="&#58989;" d="M813.198813 14.813056H192.569733V753.186944h293.982196L484.272997 447.810089l328.925816-0.759644v-22.029673h143.5727V509.341246L542.765579 896H49.756677v-1024h907.014836v173.958457h-143.5727v-31.145401zM974.243323 233.590504l-152.688427 140.534125v-64.569733H488.830861v-151.928783h332.724035v-65.329377l152.688427 141.293768z"  horiz-adv-x="1024" />

    
    <glyph glyph-name="business" unicode="&#58990;" d="M512 351.261701a270.006592 270.006592 0 1 1-270.006592 270.006592 270.006592 270.006592 0 0 1 270.006592-270.006592z m0 409.735003a135.003296 135.003296 0 1 0-135.003296-135.003296 135.003296 135.003296 0 0 0 135.003296 135.003296zM512 79.230059l81.676994 223.430455H430.323006l81.676994-223.430455zM684.129202 300.635465v-135.003296H800.232037l-33.750824-158.628873H257.518787l-33.750824 158.628873h108.002637v135.003296H57.713909l90.452208-428.635465h728.342782l89.777192 428.635465H684.129202z"  horiz-adv-x="1024" />

    
    <glyph glyph-name="approve" unicode="&#58991;" d="M608.536313 193.787709V356.826816a281.743017 281.743017 0 1 1-230.256983 0v-163.039107H47.195531l76.513966-175.910614h773.720671L976.804469 193.787709zM493.407821 752.98324A138.726257 138.726257 0 1 0 354.681564 614.256983 139.441341 139.441341 0 0 0 493.407821 752.98324zM190.927374-56.49162h639.284917v-71.50838H190.927374z"  horiz-adv-x="1024" />

    
    <glyph glyph-name="department" unicode="&#58992;" d="M924.903226 220.340176V383.249267H566.803519V445.560117h187.683285V896h-450.439883v-450.439883h187.683284v-64.56305H136.633431V220.340176H0v-348.340176h348.340176V220.340176H211.706745V308.175953h638.123167V220.340176H713.196481v-348.340176h348.340176V220.340176zM456.445748 745.853372h150.146627v-150.146627h-150.146627z"  horiz-adv-x="1063" />

    
    <glyph glyph-name="dynamics" unicode="&#58993;" d="M279.781421 616.218579L0-128l740.721311 279.781421L1024 896z m349.726776-349.726776l-386.797814-151.78142L391.693989 504.306011l390.295082 148.983606zM505.704918 381.901639m-83.934426 0a83.934426 83.934426 0 1 1 167.868852 0 83.934426 83.934426 0 1 1-167.868852 0Z"  horiz-adv-x="1024" />

    
    <glyph glyph-name="demonstration" unicode="&#58994;" d="M1059.310345 154.482759V816.198621H590.388966V896h-141.24138v-79.801379H0v-661.715862h454.091034v-45.197242l-163.133793-115.817931 81.213793-115.111724 146.891035 103.812414L635.586207-128l97.456552 105.931034-137.710345 125.704828v50.846897zM141.241379 674.957241h776.827587V295.724138H141.241379zM601.688276 456.73931L359.45931 595.155862l-134.17931-126.411034 48.728276-51.553104 96.044138 91.10069 240.110345-138.416552L805.075862 542.896552l-47.315862 52.965517-156.071724-139.122759z"  horiz-adv-x="1059" />

    
    <glyph glyph-name="plate" unicode="&#58995;" d="M889.513205 468.4197v292.362598H578.877944a134.486795 134.486795 0 0 1-268.97359 0H0v-285.053533a154.952177 154.952177 0 0 0 154.952177-153.490364A154.952177 154.952177 0 0 0 0 165.093505v-292.362599h889.513205V199.44611a134.486795 134.486795 0 1 1 0 268.97359z m-146.181299-450.238401H146.181299v40.930764a301.133476 301.133476 0 0 1 154.952177 263.126338A301.133476 301.133476 0 0 1 146.181299 585.364739v29.967167h597.150607z"  horiz-adv-x="1024" />

    
    <glyph glyph-name="file" unicode="&#58996;" d="M819.270718-128H79.558011V777.19337h739.712707z m-598.276243 141.436464h456.839779v622.320442H220.994475zM944.441989 96.883978h-70.718232V825.281768H311.513812V896h632.928177v-799.116022zM416.176796 168.309392L272.618785 311.867403l50.209944 50.209945 94.762431-94.762431L585.19337 429.259669l49.502763-50.917128-218.519337-210.033149z"  horiz-adv-x="1024" />

    
    <glyph glyph-name="inform" unicode="&#58997;" d="M713.535459-128l-388.413793 199.869876H33.311646V696.130124h291.81002l388.413793 199.869876zM166.55823 203.783995h190.542616l223.188028-113.92583V678.141835L357.100846 562.883539H166.55823zM883.424854 96.520494l-101.267404 86.61028a310.464541 310.464541 0 0 1 0 404.403383l101.267404 86.61028a443.711126 443.711126 0 0 0 0-578.290175z"  horiz-adv-x="1024" />

    
    <glyph glyph-name="posted" unicode="&#58998;" d="M54.016828 436.691262l302.89191-193.532686-3.976699-314.822006 283.671197 136.533333 302.89191-192.869903L969.983172 896z m760.212298-327.414887l-168.346925 107.370874-157.742395-76.220065V315.401942L319.130097 422.772816l508.354693 255.171521zM577.615534 284.251133a33.139159 33.139159 0 0 1 45.732039 9.941747l155.754045 242.578641a33.139159 33.139159 0 0 1-55.673786 35.790291L567.673786 329.983172a33.139159 33.139159 0 0 1 9.941748-45.732039z"  horiz-adv-x="1024" />

    
    <glyph glyph-name="inspection" unicode="&#58999;" d="M497.891226 168.284264s317.076142 155.939086 317.076142 410.639594a317.076142 317.076142 0 0 1-633.409718 0C180.815083 324.22335 497.891226 168.284264 497.891226 168.284264z m0 579.20232a167.077592 167.077592 0 0 0 167.077592-168.562726c0-95.791153-93.563452-183.414068-167.077592-235.393764-74.256708 51.979695-167.077592 140.345178-167.077593 235.393764A167.077592 167.077592 0 0 0 497.891226 747.486584z m0-241.3343A80.939811 80.939811 0 1 1 416.951414 585.606962a80.939811 80.939811 0 0 1 80.939812-80.939812zM687.988397-128L641.949239-69.337201l100.989122 77.969543-704.696157-58.662799 314.105874 236.136331 44.554025-59.405366-108.414793-81.682379 697.270486 58.662799-297.769399-231.680928z"  horiz-adv-x="1024" />

    
    <glyph glyph-name="safety" unicode="&#59000;" d="M473.351546 248.91445L323.910855 398.35514l51.531273 52.267434 98.645579-98.645579L649.294033 520.557872l51.531273-53.003595-227.47376-218.639827zM512.368081-128L114.10496 142.907261 40.488857 748.767793l471.143062 147.232207 471.143063-147.232207-73.616103-606.596693zM251.030913 226.829619l261.337168-177.41481L776.649892 226.829619l49.32279 418.139468L511.631919 742.142344 200.971963 644.969087z"  horiz-adv-x="1024" />

    
    <glyph glyph-name="sign" unicode="&#59001;" d="M234.38381 896h116.47732v-132.198186H234.38381zM826.774599 828.82903v-100.756455H638.8388V828.82903H385.875785v-100.756455H198.654571V828.82903H0v-956.82903h1025.42917V828.82903z m55.737613-841.066294H142.916957V623.028611h739.595255zM674.568039 896h116.47732v-132.198186H674.568039zM460.907188 73.51291l-207.229589 207.229588 100.756455 101.47104 106.473134-106.473133 222.235869 222.235869 101.471039-100.756455-323.706908-323.706909z"  horiz-adv-x="1025" />

    
    <glyph glyph-name="projects" unicode="&#59002;" d="M516.494261 730.749494l264.12424-172.164754-264.12424-172.164754-263.432816 172.164754 263.432816 172.164754m0 165.250506L0 558.58474l516.494261-337.41526 516.49426 337.41526L516.494261 896zM516.494261 37.250506L43.559757 347.008778l37.336934 57.388251 435.59757-284.175557 435.597569 284.175557 38.028359-57.388251-473.625928-309.758272zM516.494261-127.308575L43.559757 181.758271l37.336934 58.079676 435.59757-284.866981 435.597569 284.866981 38.028359-58.079676-473.625928-309.066846z"  horiz-adv-x="1033" />

    
    <glyph glyph-name="EMSjituanban" unicode="&#59003;" d="M81.158513 405.291585h22.544031l2.880626 2.254403L500.978474 747.084149 896 407.545988l2.504892-2.630137H1001.956947v98.69276h-44.086106L500.978474 896 44.587084 503.608611H0v-98.317026h81.158513z m379.616438-189.870841A159.436399 159.436399 0 0 0 430.966732 257.252446l-87.671233-87.671233a80.657534 80.657534 0 1 1 71.013699-71.013698l87.671233 87.671233a159.311155 159.311155 0 0 0-41.20548 29.181996z m-101.322896-150.293542a34.818004 34.818004 0 1 0 0 49.221135 34.818004 34.818004 0 0 0 0-49.34638z m320.125244 158.058708a149.291585 149.291585 0 0 1 25.048924 178.097847l-84.790607-84.790606-45.589041 12.524462-12.524461 45.589041 84.790606 84.790606a149.291585 149.291585 0 1 1 33.064579-235.960861z m216.297456 54.606654a221.056751 221.056751 0 0 0 43.835617-11.272016v109.964775h-43.835617z m-789.041096-323.25636V376.485323H62.622309v-465.784736h632.861057a222.935421 222.935421 0 0 0-30.309198 43.835617z m755.851273 289.064579a185.737769 185.737769 0 1 1 185.737769-185.863014 185.737769 185.737769 0 0 1-185.737769 185.863014z m81.409001-122.739726a37.573386 37.573386 0 0 0 0-75.146771 37.573386 37.573386 0 0 0-32.939334 20.039139 58.990215 58.990215 0 0 1 11.647749 35.068493 59.616438 59.616438 0 0 1-1.252446 12.524462 37.573386 37.573386 0 0 0 22.544031 7.514677z m-80.782778 31.937377a51.976517 51.976517 0 1 0-51.976517-51.976516 51.976517 51.976517 0 0 0 51.976517 51.976516z m-81.283758-31.937377a36.696673 36.696673 0 0 0 23.04501-8.39139 59.741683 59.741683 0 0 1-1.127202-11.772994 58.990215 58.990215 0 0 1 11.272016-34.567514 37.573386 37.573386 0 0 0-33.189824-20.540118 37.573386 37.573386 0 0 0 0 75.146771z m-43.710372-144.031311l-8.015655 61.620352h43.459882l8.767124-38.199609 4.383561 27.303327 6.387476-50.097847z m189.745597 0v-0.751468H800.438356v1.252446l-2.630137 21.41683-5.260274 40.704501H851.663405L864.187867-18.285714l12.524462 57.612524h59.866927l-4.508806-34.567515z m60.618396 0h-53.980431l6.011742 47.718199 3.882583-24.297456 8.767123 38.199609h43.334638z"  horiz-adv-x="1048" />

    
    <glyph glyph-name="daping" unicode="&#59004;" d="M0 810.666667v-759.392464h1237.407536V810.666667z m1178.045217-700.030145H59.362319V751.304348h1118.682898zM374.724638-128h487.809855v139.798261H374.724638zM842.944928 691.942029L612.470725 658.550725v-204.354783l230.474203 3.264928z m0-287.462029l-230.474203 3.264928v-204.8l230.474203-32.946087z m-280.783769 4.006957l-168.292173 2.374492v-176.602898l168.292173-24.041739z m0 243.237101l-168.440579-23.893333V450.782609l168.292174 2.374492zM971.315942 896H266.091594v-51.942029h705.224348z"  horiz-adv-x="1237" />

    
    <glyph glyph-name="ibms" unicode="&#59005;" d="M228.190863 513.775973H134.107614L112.622673 433.900508h94.083249zM146.756007 209.86802l55.445008 207.918782H108.117766L51.979695 209.86802z m599.672419 119.033503l-62.375634-119.033503h65.147885l121.285956 231.829442-62.029103-231.829442h76.929949l81.434856 303.907953h-123.538409l-96.8555-184.87445z m-125.964128-119.033503l62.202369 231.829442-2.945516-211.037564L746.774958 358.876481l1.559391 155.939086h-123.365144l-81.434856-304.947547z m467.817259 124.578004a91.137733 91.137733 0 0 0 43.316413-17.326565 22.178003 22.178003 0 0 0 4.678172-21.13841 39.677834 39.677834 0 0 0-17.326565-21.831472 56.831134 56.831134 0 0 0-33.440271-9.356345 37.252115 37.252115 0 0 0-36.559052 18.366159 57.524196 57.524196 0 0 0-2.945516 33.267005l-90.791202-5.544501a94.776311 94.776311 0 0 1 13.514721-75.890355q21.831472-29.801692 99.454484-29.801692a208.958376 208.958376 0 0 1 76.583418 12.821658A147.449069 147.449069 0 0 1 1200.557699 254.91709a127.870051 127.870051 0 0 1 30.66802 53.885617 76.929949 76.929949 0 0 1 0 45.04907 63.068697 63.068697 0 0 1-29.801692 33.613536 311.878173 311.878173 0 0 1-81.088325 26.856176 58.737056 58.737056 0 0 0-28.762098 11.089002 13.16819 13.16819 0 0 0-3.292047 12.994924 29.801692 29.801692 0 0 0 12.821658 17.326565 46.088663 46.088663 0 0 0 26.509645 6.930626 38.118443 38.118443 0 0 0 28.762098-9.356345 37.078849 37.078849 0 0 0 6.75736-29.801692l89.924873 5.197969q6.930626 47.301523-17.326565 69.306261t-82.994247 21.658206a216.582064 216.582064 0 0 1-77.969543-11.95533 130.988832 130.988832 0 0 1-49.553976-32.747208 105.865313 105.865313 0 0 1-25.470051-44.182741 59.949915 59.949915 0 0 1 10.74247-58.737056q19.752284-23.737394 77.969543-37.598646zM376.506261 209.86802q10.395939 0 43.143147 4.158376a121.285956 121.285956 0 0 1 38.291709 9.876142 119.553299 119.553299 0 0 1 38.118443 29.801692 107.944501 107.944501 0 0 1 22.351269 42.450085 64.628088 64.628088 0 0 1-2.598985 48.167851 60.296447 60.296447 0 0 1-40.890693 27.029441 105.345516 105.345516 0 0 1 38.291709 20.272082 92.350592 92.350592 0 0 1 29.108629 46.261929 57.350931 57.350931 0 0 1-9.009814 53.885617 75.543824 75.543824 0 0 1-61.682572 21.831472H295.764467l-81.434856-303.734687z m-2.42572 242.571912H415.837563a37.771912 37.771912 0 0 0 27.722505-6.930626 21.311675 21.311675 0 0 0 3.118781-20.791878 37.771912 37.771912 0 0 0-14.554314-21.831472 56.484602 56.484602 0 0 0-32.573943-7.623689H358.659898z m-31.014551-115.741455h47.648054a45.395601 45.395601 0 0 0 32.400677-8.143485 21.658206 21.658206 0 0 0 4.158375-21.658207 40.024365 40.024365 0 0 0-16.113705-23.044332 63.588494 63.588494 0 0 0-36.559053-8.663282h-47.994585zM0 896v-1024h1334.145516V896z m1316.818951-930.956345l-75.543824-75.71709H17.326565V793.080203L102.919797 878.673435H1316.818951z"  horiz-adv-x="1334" />

    
    <glyph glyph-name="ibmsyanshi" unicode="&#59006;" d="M658.795167 465.294101l-37.262829-70.886709h38.718408l72.778963 138.13447-36.971713-138.13447h45.850746L789.942857 575.772566h-73.506752l-58.22317-110.187349z m-75.107889-70.886709L620.658991 532.105188l-1.601137-125.616489 39.882871 76.126795 1.018905 93.157072h-73.652309l-48.470789-181.365174z m278.743426 74.234541a54.293106 54.293106 0 0 0 25.763752-10.48017 13.245771 13.245771 0 0 0 2.765601-12.66354 23.580384 23.580384 0 0 0-10.043497-13.100213 33.769439 33.769439 0 0 0-19.941436-5.676759 22.124805 22.124805 0 0 0-21.833688 10.916844 34.206112 34.206112 0 0 0-1.746695 19.795878l-54.147548-3.347832a56.476475 56.476475 0 0 1 8.005685-45.122957q12.954655-17.758067 59.242076-17.758067a124.452026 124.452026 0 0 1 45.55963 7.569012 87.334755 87.334755 0 0 1 32.896091 22.270363 76.126795 76.126795 0 0 1 18.194741 32.168301 45.850746 45.850746 0 0 1 0 26.782658 37.553945 37.553945 0 0 1-17.758067 20.086994 185.586354 185.586354 0 0 1-48.325231 16.011372 34.933902 34.933902 0 0 0-17.030277 6.695664 7.860128 7.860128 0 0 0-2.037811 7.71457 17.758067 17.758067 0 0 0 7.569012 10.043497 27.510448 27.510448 0 0 0 15.865814 4.075622 22.707036 22.707036 0 0 0 17.030277-5.531201 22.124805 22.124805 0 0 0 4.075622-17.758067l54.147548 3.202274a43.667377 43.667377 0 0 1-10.625729 41.047335 75.107889 75.107889 0 0 1-49.489694 12.954655 128.964321 128.964321 0 0 1-46.432978-7.132338 78.019048 78.019048 0 0 1-29.111585-19.504762 63.026581 63.026581 0 0 1-14.555792-26.345984 35.661692 35.661692 0 0 1 6.404548-34.933902 90.391471 90.391471 0 0 1 45.559631-21.979247zM334.783227 517.549396h-56.185359l-33.041649-123.43312h56.039801z m14.555792 58.22317h-55.312011l-12.809098-47.597442h56.039801z m88.35366-181.074059q6.113433 0 25.763753 2.474485a72.778962 72.778962 0 0 1 22.852594 5.967875 71.323383 71.323383 0 0 1 23.14371 17.466951 64.336603 64.336603 0 0 1 13.391329 25.327079 38.427292 38.427292 0 0 1-1.455579 29.111585 35.952807 35.952807 0 0 1-24.453731 16.15693 62.735466 62.735466 0 0 1 22.852594 11.790191 55.020896 55.020896 0 0 1 17.321393 27.510448 34.206112 34.206112 0 0 1-5.385643 32.168302A44.977399 44.977399 0 0 1 494.896944 575.772566h-104.51059l-48.616347-181.365174z m-1.018905 144.102346h24.744847a22.41592 22.41592 0 0 0 16.593604-4.512296 12.663539 12.663539 0 0 0 1.746695-12.372423 22.41592 22.41592 0 0 0-8.587918-13.100214 33.623881 33.623881 0 0 0-19.359204-4.512295h-24.017057z m-18.485856-68.848898h29.111584a27.073774 27.073774 0 0 0 18.485857-4.803412 12.809097 12.809097 0 0 0 2.474485-12.954655 23.8715 23.8715 0 0 0-9.606823-13.828003 37.84506 37.84506 0 0 0-21.688131-5.094528h-29.111585zM0 896v-794.600711h1195.321677V896z m1134.624023-733.757498H60.843213V835.156787h1073.78081z m-476.119972-89.954798h-121.686425v-65.064392l-81.512438-81.512438L509.452736-128l88.499219 88.644776 88.499218-88.644776 53.710874 53.710874-81.512438 81.512438z"  horiz-adv-x="1195" />

    
    <glyph glyph-name="guanggujieneng" unicode="&#59007;" d="M609.714132 624.908748H413.45895v-41.345895h196.255182z m0 85.172544H529.227456v110.25572h-34.868371v-110.25572H413.45895v-68.909825h196.255182z m-97.714132-621.842261a225.610767 225.610767 0 0 1 119.627456 417.042261l-21.637685 61.329744H413.45895l-21.637685-61.329744a225.610767 225.610767 0 0 1 119.627456-417.042261z m-60.640646 268.610498l23.56716-82.69179 21.637685 82.69179h31.974159l20.948587-82.69179 23.980619 82.69179H606.40646l-41.345895-125.278062h-31.28506l-21.637685 80.624495-21.224226-80.624495h-32.111979l-39.692059 125.278062z m39.692059-376.798923h41.345895v59.538088h-41.345895z m200.114132 125.140242l42.172813-42.172813 29.631225 29.631225-42.172813 42.172813z m154.909287 229.745357h-59.675909v-41.345895h59.675909z m-608.473755 0h-59.675909v-41.345895h59.675909z m95.233378-229.883177L303.20323 134.822073l-42.172813-42.172813 29.631225-29.631225zM0 896v-1024h1024V896z m968.87214-968.87214H55.12786V840.87214h913.74428z"  horiz-adv-x="1024" />

    
    <glyph glyph-name="EMSxiangmuban" unicode="&#59008;" d="M80.950592 406.548737h22.486275l2.873246 2.248628L499.69501 747.465658 893.704526 408.797365l2.498475-2.623399H999.390021v98.439917h-43.973161L499.69501 896 44.472856 504.613883H0v-98.065146h80.950592z m596.88569-181.639136a148.909113 148.909113 0 0 1 24.98475 177.641576l-84.57338-84.57338-45.472246 12.492375-12.492376 45.472246 84.573381 84.57338a148.909113 148.909113 0 1 1 32.979871-235.356349z m-218.36672-7.745273A159.027937 159.027937 0 0 0 429.862633 258.888862l-87.446627-87.446627a80.450897 80.450897 0 1 1 70.831768-70.831768l87.446626 87.446627a158.903013 158.903013 0 0 0-41.099914 29.107234z m-101.063316-149.908503a34.728803 34.728803 0 1 0 0 49.095035 34.728803 34.728803 0 0 0 0.124924-49.219958z m535.173356 212.37038a220.490423 220.490423 0 0 0 43.723314-11.243138v109.433207h-43.723314z m-787.019641-322.428206V377.816274H62.461876v-464.591436h631.239722a222.36428 222.36428 0 0 0-30.231548 43.723314z m684.45724 60.58802h15.615469v15.615469h-15.615469z m46.471636 87.446627h22.985971v21.736733H836.989142z m39.850677 0h22.985971v21.736733h-22.985971z m49.969501-87.446627h15.61547v15.615469h-15.115774z m0 24.984751h15.61547v15.615469h-15.115774z m-49.969501 28.232768h22.985971v22.111504h-22.985971z m-86.322313-28.232768h15.615469v15.615469h-15.615469zM836.989142 71.503233h22.985971v21.611809H836.989142z m29.981701 171.645236a185.261925 185.261925 0 1 1 185.76162-185.886544 185.261925 185.261925 0 0 1-185.261925 185.261925z m96.566061-287.324631H766.282298v9.9939h12.492376v104.18641h41.849457v-104.18641H824.496767v108.683665h-9.494205v77.952422h107.059656v-78.077346h-12.492375v-108.683665h4.747102v104.311334h41.849457v-104.18641h7.745273z"  horiz-adv-x="1052" />

    
    <glyph glyph-name="zhihuidianti-weibaodanwei" unicode="&#59009;" d="M476.263476 641.726076A131.207001 131.207001 0 1 1 344.918508 510.519075a131.207001 131.207001 0 0 1 131.344968 131.207001z m320.084376-177.977951H625.682174l85.401823-118.651966z m-745.023978-504.960696V844.400191h872.091956v-526.759546a240.753119 240.753119 0 0 0 51.599809-12.417066V896H0v-988.81238h719.637976a243.374499 243.374499 0 0 0-38.630873 51.599809zM136.449762 68.19558v-70.915245h527.311415a241.718891 241.718891 0 0 0-13.79674 70.915245H441.495691V239.413128h51.599808V479.614377H191.360788v-240.201249h51.599809V68.19558z m574.634235 623.612663l-85.401823-118.651967h170.803645z m107.614574-676.040276a16.280154 16.280154 0 1 1 23.040557 0 16.280154 16.280154 0 0 1-23.040557 0.413902z m74.088496 265.449284a204.605659 204.605659 0 1 1 204.605659-204.191757 204.605659 204.605659 0 0 1-204.605659 204.605659z m-25.110068-272.485622a37.941036 37.941036 0 1 0-33.388111 33.388112l41.390221 41.390221a74.36443 74.36443 0 0 1 33.388111-33.388112z m124.170663 58.636147a70.225408 70.225408 0 1 0-15.590316 110.373922L936.798669 138.558956l5.79463-21.384948 21.384948-5.794631L1003.850827 150.976022a70.087441 70.087441 0 0 0-11.589262-83.470279z"  horiz-adv-x="1097" />

    
    <glyph glyph-name="zhihuidianti-shiyongdanwei" unicode="&#59010;" d="M136.505729 67.856045v-70.944332h527.527699a241.818035 241.818035 0 0 0-13.8024 70.944332H441.676776V239.14382h51.620973V479.443591H191.439278v-240.299771h51.620973V67.856045z m-84.884756-109.453026V844.379027h872.173608v-526.975603a240.851867 240.851867 0 0 0 51.620974-12.42216V896H0v-989.217954h719.933145a243.474323 243.474323 0 0 0-38.646718 51.620973z m424.975873 683.218763A131.260817 131.260817 0 1 1 345.059981 510.360965a131.260817 131.260817 0 0 1 131.398841 131.260817z m320.215662-178.05095H625.938806l85.436851-118.700634zM711.375657 691.724491l-85.436851-118.700633h170.873702z m181.777598-410.345329a204.689581 204.689581 0 1 1 204.689581-204.689581 204.689581 204.689581 0 0 1-204.689581 204.689581z m-0.828144-72.462596a65.561396 65.561396 0 1 0-65.561396-65.561397 65.561396 65.561396 0 0 0 65.561396 65.561397z m77.569484-243.474323H816.273891l-13.802399 91.371883h75.3611l15.320663-52.311093 15.320663 52.311093h75.499124z"  horiz-adv-x="1097" />

    
    <glyph glyph-name="zhihuixiaofang" unicode="&#59011;" d="M854.733388 634.749795H352.953787v-112.004375h501.779601zM632.964725 860.858627V896H574.022423v-35.141373a212.528302 212.528302 0 0 1-182.847143-210.008203h424.636588a212.528302 212.528302 0 0 1-182.847143 210.008203zM376.05469 400.100629h-52.362046v-169.406618h52.22204z m-65.662565-46.061799h-43.121685v-77.283019h43.121685zM882.034454 400.100629h-51.522012v-169.406618H882.034454z m56.002188-46.061799h-42.001641v-77.283019h43.121685zM352.953787-53.517091h501.779601v78.263058H352.953787z m250.889801 429.956796a74.202899 74.202899 0 1 1 74.202898-74.202899 74.202899 74.202899 0 0 1-74.202898 74.202899zM392.015313 507.764835v-468.4583h423.796555V507.764835z m212.108286-308.012032a102.203992 102.203992 0 1 0 102.203992 102.203992 102.203992 102.203992 0 0 0-102.484003-101.783976zM1022.039923 216.83347h-60.062346v-56.002188h26.741045l124.324856-232.829094H93.383648l124.324856 232.689089h24.920974v56.002188h-58.522286L0-128h1206.427126z"  horiz-adv-x="1206" />

    
    <glyph glyph-name="service-left-adverti" unicode="&#59012;" d="M17.373867 896v-743.492267h989.252266V896H17.373867z m885.896533-640.7168H120.7296V793.224533h782.5408v-537.941333z m-834.218667-267.264h391.304534v-115.780267h103.355733V-11.946667h391.236267v102.775467H69.051733V-11.946667z m247.978667 459.434667h102.0928l18.193067-54.237867h55.944533l-89.531733 257.3312H337.988267L244.292267 393.216h53.1456z m51.746133 153.019733h1.399467l34.952533-109.8752H331.025067z m431.377067-79.291733q-1.399467 128-130.082133 129.365333h-88.098134v-257.3312h88.098134q128.682667 0.1024 130.082133 128.068267z m-163.6352-84.855467V607.4368H665.9072q76.9024 1.399467 75.537067-86.254933 1.365333-87.620267-75.537067-84.855467h-29.354667z"  horiz-adv-x="1024" />

    
    <glyph glyph-name="service-left-enterpr" unicode="&#59013;" d="M887.207724 440.28469V896H261.296552v-365.179586H0V-128h105.931034V424.571586h271.465932V-128h105.931034V530.785103h-116.382897V789.751172H781.417931v-349.572413h-136.827586V-128h105.931034V333.85931H918.068966V-128h105.931034V440.28469h-136.792276zM426.407724 638.94069h95.337931V734.667034h-95.337931V638.94069zM193.853793 270.653793h95.337931V366.344828h-95.337931v-95.691035z m592.790069-73.798621h95.337931v95.726345h-95.337931V196.855172zM720.719448 734.808276h-95.337931v-95.726345h95.337931V734.808276z"  horiz-adv-x="1024" />

    
    <glyph glyph-name="screen-left-space" unicode="&#59014;" d="M123.328 509.12l353.088-149.92 35.584-15.104 35.584 15.104 353.088 149.92v-372.512L512-28.416 123.328 136.608V509.12m868.32 137.6L512 442.912 32.32 646.56v-570.112l478.816-203.328v-0.704l0.864 0.352 0.832-0.352v0.704l478.816 203.328V646.56z m-9.888 34.688l-473.6-201.6-473.6 201.6L508.8 896z m-439.456-651.84h-60.8V295.36h60.8v-265.952z"  horiz-adv-x="1024" />

    
    <glyph glyph-name="service-sign-ad" unicode="&#59015;" d="M443.000653 477.031953l-18.014215-52.896283h35.209601l-16.376558 52.896283h-0.818828z m255.883726 92.773204H324.270604v-258.913389h374.613775V569.805157z m-223.130609-192.424562l-8.597693 26.120611h-49.129676l-9.416521-26.120611h-25.383666l45.035536 123.888665h31.524875l42.579052-123.888665h-26.611907z m111.360598 0h-42.169639V501.26926h42.169639a55.803123 55.803123 0 0 0 62.230922-62.271864 55.107119 55.107119 0 0 0-62.230922-61.739625z m-75.741583 418.42107a411.788563 411.788563 0 1 1 411.870446-411.788564A411.624798 411.624798 0 0 1 511.372785 795.67884z m212.076432-613.42494H536.347036v-55.72124h-49.539089v55.72124H299.296352v49.457206h424.152865v-49.457206z m24.974252 79.18066H274.731514v357.827803h473.691955v-357.827803z m-163.356171 218.954587h-13.920075v-82.374089h13.920075a33.367238 33.367238 0 0 1 36.437842 40.941396 34.0223 34.0223 0 0 1-36.437842 41.309869z m-73.694513-608.389148A511.767453 511.767453 0 1 0 1023.549651 383.767453 512.463457 512.463457 0 0 0 511.372785-128z m0 996.267936a484.377659 484.377659 0 1 1 484.336717-484.377659A484.99178 484.99178 0 0 1 511.372785 868.267936z"  horiz-adv-x="1024" />

    
    <glyph glyph-name="service-left-assets" unicode="&#59016;" d="M1023.894007-128H0V895.964669h1023.894007v-1023.964669zM106.911776-21.017562h809.999793V788.982231H106.911776v-809.999793zM735.380602 638.648587L658.217576 715.811614l-146.305904-146.341235-146.341234 146.341235-77.163027-77.163027 122.139461-122.139461H281.906497v-109.137632h175.418694v-51.548011H281.906497v-109.137633h175.418694v-194.532795h109.137632v194.532795H741.952179v109.137633h-175.489356V407.371494H741.952179v109.137632h-128.711038z"  horiz-adv-x="1024" />

    
    <glyph glyph-name="service-sign-enterpr" unicode="&#59017;" d="M511.5904 796.09856a411.97568 411.97568 0 1 1 412.0576-411.97568A412.18048 412.18048 0 0 1 511.5904 796.09856zM407.9616 331.44832H363.3152V375.808h44.6464v-44.4416z m108.1344 171.04896h-44.2368V546.97984h44.2368v-44.48256z m168.3456-205.4144h-44.6464v44.48256h44.6464v-44.48256z m65.9456-150.7328h-49.152v214.54848h-78.2336V146.432H573.44v263.7824h63.8976V572.416h-193.3312v-120.25856h54.0672V146.432h-49.152v256.57344H322.3552V146.432H272.7936v305.93024h122.0608V621.9776h291.6352v-211.68128h63.8976V146.432z m-185.9584 356.352V547.18464h44.6464v-44.48256h-44.6464zM511.5904-128A512 512 0 1 0 1024 384 512.69632 512.69632 0 0 0 511.5904-128z m0 996.72064a484.59776 484.59776 0 1 1 484.5568-484.59776A485.21216 485.21216 0 0 1 511.5904 868.72064z"  horiz-adv-x="1024" />

    
    <glyph glyph-name="service-sign-space" unicode="&#59018;" d="M492.3392 370.4832l-192.512 81.92v-203.5712l211.7632-90.112 212.1728 90.112v203.32544l-192.512-81.92-19.6608-8.192z m36.0448-180.0192h-33.1776v145.16224h33.1776v-145.16224z m-16.7936 605.63456a411.97568 411.97568 0 1 1 412.0576-411.97568A411.81184 411.81184 0 0 1 511.5904 796.09856z m0.4096-132.58752l258.048-117.26848-258.4576-110.10048-258.048 110.10048z m261.3248-447.40608l-261.3248-110.96064v-0.36864h-0.8192v0.36864L249.856 216.10496V527.36l261.7344-111.16544L773.3248 527.36v-311.296z m-261.7344-344.064A512 512 0 1 0 1024 384 512.69632 512.69632 0 0 0 511.5904-128z m0 996.72064a484.59776 484.59776 0 1 1 484.5568-484.59776A485.21216 485.21216 0 0 1 511.5904 868.72064z"  horiz-adv-x="1024" />

    
    <glyph glyph-name="service-sign-assets" unicode="&#59019;" d="M688.9472 561.31584H334.6432v-354.38592h354.304V561.31584z m-76.5952-166.95296h-76.5952v-22.65088h76.5952v-47.7184h-76.5952v-85.11488h-47.9232v85.11488h-76.5952V371.712h76.5952v22.56896h-76.5952v47.75936h56.1152l-53.248 53.248 33.5872 33.75104 63.8976-64.02048 64.3072 64.02048 33.5872-33.75104-53.248-53.248h56.1152v-47.75936z m-100.7616 401.73568a411.97568 411.97568 0 1 1 412.0576-411.97568A411.81184 411.81184 0 0 1 511.5904 796.09856z m224.0512-635.98592H287.5392V608.13312h448.1024v-448.02048zM511.5904-128A512 512 0 1 0 1024 384 512.69632 512.69632 0 0 0 511.5904-128z m0 996.72064a484.59776 484.59776 0 1 1 484.5568-484.59776A485.21216 485.21216 0 0 1 511.5904 868.72064z"  horiz-adv-x="1024" />

    
    <glyph glyph-name="service-assets-chair" unicode="&#59020;" d="M897.204477 450.685034H254.719818V896H125.838165v-1023.93588h128.881653v303.929869h513.603006v-303.929869h128.881653v578.364434z m-128.881653-212.558547H254.719818v79.50908h513.603006v-79.50908z"  horiz-adv-x="1024" />

    
    <glyph glyph-name="service-assets-camer" unicode="&#59021;" d="M986.912813 417.903498a476.410064 476.410064 0 1 1-685.433283-426.461658l-50.898511-119.509705h517.80752l-50.219865 118.695328a475.392094 475.392094 0 0 1 268.744139 427.276035z m-476.410064-352.081968a352.081968 352.081968 0 1 0 352.896344 352.081968 352.896344 352.896344 0 0 0-352.896344-352.081968z m0 504.03099a216.28474 216.28474 0 1 1 217.166981-216.28474 216.556199 216.556199 0 0 1-217.166981 216.28474z m0 32.03213a63.046289 63.046289 0 1 1-63.114154 63.046289 63.249883 63.249883 0 0 1 63.114154-63.046289z"  horiz-adv-x="1024" />

    
    <glyph glyph-name="service-assets-table" unicode="&#59022;" d="M0 896V729.922975h113.891102v-857.922975h170.836654V729.922975h874.581673v-857.922975h170.836653V729.922975h113.891103V896H0zM772.589641 503.840637h312.775565V685.726428H772.589641v-181.885791z m0-218.092961h312.775565V467.718459H772.589641v-181.970783z m0-222.427623h312.775565V245.37583H772.589641v-182.055777z"  horiz-adv-x="1445" />

    
    <glyph glyph-name="service-assets-proje" unicode="&#59023;" d="M1097.020651 896H0v-159.454655h103.337566v-619.409477h890.345519V736.545345h103.337566v159.454655z m-180.669652-699.136804H180.669652V720.59988h735.681347v-523.736684z m-329.174631-80.480118H509.844283v-146.246608H371.604625v-98.13647h353.811401v98.13647H587.176368v146.246608z m158.085946 382.212123H351.073982v-79.727327h394.188332V498.595201z"  horiz-adv-x="1098" />

    
    <glyph glyph-name="service-assets-serve" unicode="&#59024;" d="M838.997333 879.752533l-30.037333-63.624533V896H0v-1024h808.96v78.165333l30.037333-62.941866 251.221334 118.101333v757.76zM669.696 8.533333H138.581333V759.466667h531.114667v-750.933334z m281.941333 82.944l-142.677333-67.242666V742.946133l142.677333-66.286933v-585.250133zM614.4 707.584H193.877333v-281.326933h420.522667V707.584zM544.768 494.523733H263.509333V639.317333h281.258667v-144.861866z m-142.677333-301.4656a64.238933 64.238933 0 1 1 65.536-64.170666 64.7168 64.7168 0 0 1-65.536 63.965866z"  horiz-adv-x="1090" />

    
    <glyph glyph-name="service-assets-compu" unicode="&#59025;" d="M0 896v-808.599553h1261.957945V896H0z m1104.213202-649.51398H157.744743V736.914427h946.468459v-490.586152z m-676.724948-374.48602h406.981437V31.085573H427.488254v-159.085573z"  horiz-adv-x="1263" />

    
    <glyph glyph-name="service-sign-chair" unicode="&#59026;" d="M384.6144 314.12224h254.3616v38.13376H384.6144v-38.13376z m533.2992 139.75552a412.0576 412.0576 0 1 1-475.9552-475.99616 411.27936 411.27936 0 0 1 475.9552 475.99616z m-215.04-101.62176v-213.4016H638.976V284.4672H384.6144v-145.6128H320.7168V629.3504h63.8976v-213.36064h318.2592v-63.73376zM511.5904-128A512 512 0 1 0 1024 384 512.69632 512.69632 0 0 0 511.5904-128z m0 996.72064a484.63872 484.63872 0 1 1 484.9664-484.59776A485.21216 485.21216 0 0 1 511.5904 868.72064z"  horiz-adv-x="1024" />

    
    <glyph glyph-name="service-sign-company" unicode="&#59027;" d="M511.5904-128A512 512 0 1 0 1024 384 512.69632 512.69632 0 0 0 511.5904-128z m0 996.72064a484.63872 484.63872 0 1 1 484.9664-484.59776A485.21216 485.21216 0 0 1 511.5904 868.72064z m406.3232-414.84288a412.0576 412.0576 0 1 1-475.9552-475.99616 411.27936 411.27936 0 0 1 475.9552 475.99616z m-156.8768-280.65792H276.0704v39.5264H348.16V420.0448h44.2368v-207.29856h110.592v298.5984h44.6464v-118.04672h162.6112v-38.99392h-162.6112v-141.55776h213.4016v-39.5264z m-5.7344 266.56768a700.17024 700.17024 0 0 0-235.1104 183.74656 775.74144 775.74144 0 0 0-242.0736-196.608c-9.0112 13.5168-19.6608 28.13952-30.72 43.78624a622.592 622.592 0 0 1 253.5424 200.33536h57.7536l-10.6496-14.41792a533.9136 533.9136 0 0 1 236.7488-170.92608c-8.192-11.34592-17.6128-26.66496-29.4912-45.91616z"  horiz-adv-x="1024" />

    
    <glyph glyph-name="service-sign-idle" unicode="&#59028;" d="M511.5904-128A512 512 0 1 0 1024 384 512.69632 512.69632 0 0 0 511.5904-128z m0 996.72064a484.63872 484.63872 0 1 1 484.9664-484.63872A485.25312 485.25312 0 0 1 511.5904 868.72064z m406.3232-414.84288a412.0576 412.0576 0 1 1-475.9552-475.99616 411.27936 411.27936 0 0 1 475.9552 475.99616zM280.576 604.61056h227.7376c-7.7824 15.19616-18.0224 32.3584-29.9008 51.4048l38.5024 18.92352a550.21568 550.21568 0 0 0 37.2736-60.86656l-18.8416-9.46176h220.7744V502.784h-43.008V564.67456H323.584V502.784H280.576V604.5696z m-23.3472-192.02048a1044.93056 1044.93056 0 0 1 192.1024 125.91104l31.1296-29.9008a1540.096 1540.096 0 0 0-191.6928-130.12992 192.512 192.512 0 0 1-31.5392 34.2016z m501.76-230.85056H277.2992v39.85408h218.3168v137.46176H331.3664v39.89504h373.5552v-39.89504h-164.6592v-137.46176h218.7264v-39.85408z m-13.1072 196.23936a2267.42272 2267.42272 0 0 1-186.7776 129.55648l24.9856 30.43328a2724.00384 2724.00384 0 0 0 191.6928-123.82208z"  horiz-adv-x="1024" />

    
    <glyph glyph-name="service-sign-demo" unicode="&#59029;" d="M917.9136 453.87776a412.0576 412.0576 0 1 1-475.9552-475.99616 411.27936 411.27936 0 0 1 475.9552 475.99616z m-326.8608-291.6352h-158.5152v42.51648h61.8496v63.36512h34.816v-63.36512h61.8496v-42.51648z m166.2976 374.66112h-46.2848v-268.45184H312.5248V536.90368H266.24V605.96224h491.1104v-69.05856z m-81.1008-6.92224H346.9312v-226.95936h329.3184V529.98144z m-76.1856-130.74432h-176.5376v34.52928h176.5376v-34.52928zM511.5904-128A512 512 0 1 0 1024 384 512.69632 512.69632 0 0 0 511.5904-128z m0 996.72064a484.63872 484.63872 0 1 1 484.9664-484.59776A485.21216 485.21216 0 0 1 511.5904 868.72064z"  horiz-adv-x="1024" />

    
    <glyph glyph-name="service-sign-camera" unicode="&#59030;" d="M917.876885 453.854486a412.041118 412.041118 0 1 1-475.936163-475.977121 411.262909 411.262909 0 0 1 475.936163 475.977121zM614.375425 189.550178l24.984601-58.939082H382.960682l24.9846 59.348666a235.920163 235.920163 0 1 0 206.430143-0.409584z m-102.805488 386.810768a174.769329 174.769329 0 1 1 174.892205-174.728371A174.769329 174.769329 0 0 1 511.569937 576.483821z m0-20.847807a31.292188 31.292188 0 1 0-31.128355-31.292188 31.292188 31.292188 0 0 0 31.128355 31.292188z m0-293.138994a107.351866 107.351866 0 1 0 107.310908 107.310908 107.556658 107.556658 0 0 0-107.310908-107.310908z m0-390.374145A511.979521 511.979521 0 1 0 1023.959042 383.979521 512.675813 512.675813 0 0 0 511.569937-128z m0 996.680773a484.619335 484.619335 0 1 1 484.947002-484.578377A485.192752 485.192752 0 0 1 511.569937 868.680773z"  horiz-adv-x="1024" />

    
    <glyph glyph-name="service-sign-own" unicode="&#59031;" d="M511.5904-128A512 512 0 1 0 1024 384 512.69632 512.69632 0 0 0 511.5904-128z m0 996.72064a484.63872 484.63872 0 1 1 484.9664-484.59776A485.21216 485.21216 0 0 1 511.5904 868.72064zM356.352 474.48064h323.1744V561.60256H356.352v-87.12192z m0-249.856h323.1744v88.14592H356.352v-88.14592z m0 125.41952h323.1744V437.248H356.352v-87.08096z m561.5616 103.71072a412.0576 412.0576 0 1 1-475.9552-475.99616 411.27936 411.27936 0 0 1 475.9552 476.11904z m-196.1984-298.3936h-42.1888v31.45728H356.352v-31.45728H314.5728V599.36768h135.5776c7.3728 20.48 15.9744 44.40064 24.9856 72.37632l44.6464-13.63968c-9.0112-21.66784-17.6128-41.24672-26.2144-58.73664h228.1472v-443.88352z"  horiz-adv-x="1024" />

    
    <glyph glyph-name="service-sign-table" unicode="&#59032;" d="M920.3712 453.87776a412.2624 412.2624 0 1 1-475.9552-475.99616 412.22144 412.22144 0 0 1 475.9552 475.99616z m-271.9744-192.14336h-115.5072v69.632h115.5072v-69.632z m0 84.82816h-115.5072v69.4272h115.5072v-69.4272z m0 83.18976h-115.5072v69.632h115.5072v-69.632z m132.7104 86.2208h-41.7792v-327.14752H675.84V515.97312H352.256v-327.14752H289.1776V515.97312H246.9888V579.3792h534.1184v-63.40608zM511.5904-128A512 512 0 1 0 1024 384 512.69632 512.69632 0 0 0 511.5904-128z m0 996.72064a484.63872 484.63872 0 1 1 484.9664-484.63872A485.25312 485.25312 0 0 1 511.5904 868.72064z"  horiz-adv-x="1024" />

    
    </font>
</defs>
</svg>
